<svg xmlns="http://www.w3.org/2000/svg" viewBox="0 0 1128 552">
    <defs>
        <svg id="davesa-c" xmlns="http://www.w3.org/2000/svg" fill="none" viewBox="0 0 24 24" stroke-width="1.5"
            stroke="#f48067" aria-hidden="true">
            <path
                d="M19.11,11.99h0l3.58-2.05-1.85-3.22c-.66-1.16-1.71-1.95-2.9-2.32-.28-.09-.57-.15-.86-.19V.07h-3.72c-1.33,0-2.55.5-3.46,1.34-.22.2-.42.42-.6.65l-.13-.08-.13-.08h0l-.49-.28-2.82-1.63-1.87,3.22c-.65,1.12-.85,2.42-.57,3.67l1.34-.77c-.07-.75.09-1.51.48-2.18l1.14-1.97,1.58.92.75.44.2.12h0s.25.15.25.15l.24.14.43.25,2.25,1.3.63.36-.98,1.69-.12.21-.03.06c-.09.16-.2.32-.31.46-.07.09-.15.18-.23.26-.13.14-.28.26-.43.38,0,0,0,0,0,0h0c-.15.12-.31.22-.47.3-.1.05-.21.1-.31.15-.19.08-.39.14-.59.19-.08.02-.16.03-.25.05-.8.13-1.64-.01-2.39-.45-.05-.03-.11-.06-.16-.1-.12-.08-.24-.16-.35-.26-.13-.11-.25-.22-.36-.34l2.1-1.21.62-.36.97,1.7s.05-.02.08-.03c.43-.18.8-.46,1.1-.83.02-.02.03-.04.05-.06-.51-.63-.81-1.43-.81-2.3,0-.06,0-.12,0-.19l-1.35-.79c-.05.28-.09.56-.09.86l-.86.49-3.82,2.2-.76.44-2.81,1.62,1.85,3.22c.64,1.12,1.67,1.94,2.9,2.32v-1.54c-.69-.31-1.26-.83-1.64-1.5l-1.13-1.97,1.58-.91.76-.44c.14.17.29.34.45.49.05.05.11.11.17.16.22.19.45.36.7.51v.99s0,3.68,0,3.68h0v1.6s0,3.25,0,3.25h3.72c.13,0,.27,0,.4,0,1.15-.09,2.21-.55,3.06-1.33l-1.33-.77c-.62.44-1.35.68-2.12.67h-2.27s0-1.82,0-1.82v-.38h0v-.5c.22-.03.44-.08.65-.15.07-.02.15-.04.22-.07.27-.09.53-.21.79-.35l.86.5,1.78,1.03.77.44,1.27.73h0l3.56,2.07,1.87-3.22c.67-1.15.83-2.46.56-3.67-.06-.29-.15-.57-.27-.85h0ZM10.57,2.8c.2-.23.42-.44.67-.61.53-.38,1.16-.62,1.84-.67.09,0,.19-.01.28-.01h2.27s0,2.7,0,2.7h0v.79s0,.68,0,.68v.89s0,1.53,0,1.53v.72h-1.96s0,.05-.01.08c-.06.46,0,.93.17,1.36,0,.02.02.05.03.07.8-.13,1.64.01,2.39.45.05.03.11.06.16.1l1.36-.78c-.21-.19-.45-.36-.69-.51v-.99s0-2.06,0-2.06v-.79h.01v-.1c.3.05.58.15.86.27.67.3,1.25.81,1.65,1.5l1.13,1.97-3.5,2.01-.11.06-.78.45-1.32.76-.62.36-.98-1.7-.12-.22-.03-.06c-.09-.16-.17-.33-.24-.5-.04-.11-.08-.22-.11-.33-.05-.18-.09-.37-.11-.55h0s0,0,0,0c-.02-.19-.03-.38-.02-.57,0-.11.01-.23.03-.35.02-.16.05-.32.1-.48.01-.04.02-.09.04-.13.02-.08.05-.16.08-.24.3-.78.85-1.43,1.59-1.85.05-.03.11-.06.16-.09v-1.57c-.26.09-.53.21-.78.35l-.86-.5-2.55-1.48h0ZM12.05,15.21l-1.32-.76-.63-.36.98-1.69s-.04-.04-.06-.05c-.37-.28-.81-.47-1.27-.53-.02,0-.05,0-.07,0-.3.78-.85,1.43-1.59,1.85-.05.03-.11.06-.16.09-.13.07-.26.12-.4.17-.15.06-.31.1-.47.14h0v-2.42s0-.72,0-.72h1.96s.25,0,.25,0h.07c.19,0,.37.01.56.04.11.02.23.04.34.07.18.05.36.11.53.18,0,0,0,0,0,0,0,0,0,0,0,0,.17.07.34.16.5.26.1.06.19.13.28.2.13.1.25.21.37.32.03.03.06.07.1.1.06.06.11.12.16.19.52.65.81,1.45.81,2.3,0,.06,0,.12,0,.19,0,.14-.02.29-.05.43-.03.16-.07.32-.12.48l-.29-.17h-.01s-.48-.28-.48-.28h0ZM17.57,15.78l-1.14,1.97-2.33-1.35c.08-.21.15-.42.2-.64.02-.07.03-.15.05-.22.06-.28.09-.57.09-.86l.86-.49,1.79-1.03.52-.3h0l.09-.05.16-.09c.1.29.17.58.2.89.07.73-.08,1.49-.48,2.18Z"
                style="fill:#f48067; stroke-width:0px;" />
        </svg>
        <svg id="davesa" xmlns="http://www.w3.org/2000/svg" fill="none" viewBox="0 0 24 24" stroke-width="1.5"
            stroke="currentColor" aria-hidden="true">
            <path
                d="M19.45,12.33h0l3.58-2.05-1.85-3.22c-.66-1.16-1.71-1.95-2.9-2.32-.28-.09-.57-.15-.86-.19V.42h-3.72c-1.33,0-2.55.5-3.46,1.34-.22.2-.42.42-.6.65l-.13-.08-.13-.08h0l-.49-.28L6.08.34l-1.87,3.22c-.65,1.12-.85,2.42-.57,3.67l1.34-.77c-.07-.75.09-1.51.48-2.18l1.14-1.97,1.58.92.75.44.2.12h0s.25.15.25.15l.24.14.43.25,2.25,1.3.63.36-.98,1.69-.12.21-.03.06c-.09.16-.2.32-.31.46-.07.09-.15.18-.23.26-.13.14-.28.26-.43.38,0,0,0,0,0,0h0c-.15.12-.31.22-.47.3-.1.05-.21.1-.31.15-.19.08-.39.14-.59.19-.08.02-.16.03-.25.05-.8.13-1.64-.01-2.39-.45-.05-.03-.11-.06-.16-.1-.12-.08-.24-.16-.35-.26-.13-.11-.25-.22-.36-.34l2.1-1.21.62-.36.97,1.7s.05-.02.08-.03c.43-.18.8-.46,1.1-.83.02-.02.03-.04.05-.06-.51-.63-.81-1.43-.81-2.3,0-.06,0-.12,0-.19l-1.35-.79c-.05.28-.09.56-.09.86l-.86.49-3.82,2.2-.76.44-2.81,1.62,1.85,3.22c.64,1.12,1.67,1.94,2.9,2.32v-1.54c-.69-.31-1.26-.83-1.64-1.5l-1.13-1.97,1.58-.91.76-.44c.14.17.29.34.45.49.05.05.11.11.17.16.22.19.45.36.7.51v.99s0,3.68,0,3.68h0v1.6s0,3.25,0,3.25h3.72c.13,0,.27,0,.4,0,1.15-.09,2.21-.55,3.06-1.33l-1.33-.77c-.62.44-1.35.68-2.12.67h-2.27s0-1.82,0-1.82v-.38h0v-.5c.22-.03.44-.08.65-.15.07-.02.15-.04.22-.07.27-.09.53-.21.79-.35l.86.5,1.78,1.03.77.44,1.27.73h0l3.56,2.07,1.87-3.22c.67-1.15.83-2.46.56-3.67-.06-.29-.15-.57-.27-.85h0ZM10.91,3.14c.2-.23.42-.44.67-.61.53-.38,1.16-.62,1.84-.67.09,0,.19-.01.28-.01h2.27s0,2.7,0,2.7h0v.79s0,.68,0,.68v.89s0,1.53,0,1.53v.72h-1.96s0,.05-.01.08c-.06.46,0,.93.17,1.36,0,.02.02.05.03.07.8-.13,1.64.01,2.39.45.05.03.11.06.16.1l1.36-.78c-.21-.19-.45-.36-.69-.51v-.99s0-2.06,0-2.06v-.79h.01v-.1c.3.05.58.15.86.27.67.3,1.25.81,1.65,1.5l1.13,1.97-3.5,2.01-.11.06-.78.45-1.32.76-.62.36-.98-1.7-.12-.22-.03-.06c-.09-.16-.17-.33-.24-.5-.04-.11-.08-.22-.11-.33-.05-.18-.09-.37-.11-.55h0s0,0,0,0c-.02-.19-.03-.38-.02-.57,0-.11.01-.23.03-.35.02-.16.05-.32.1-.48.01-.04.02-.09.04-.13.02-.08.05-.16.08-.24.3-.78.85-1.43,1.59-1.85.05-.03.11-.06.16-.09v-1.57c-.26.09-.53.21-.78.35l-.86-.5-2.55-1.48h0ZM12.39,15.55l-1.32-.76-.63-.36.98-1.69s-.04-.04-.06-.05c-.37-.28-.81-.47-1.27-.53-.02,0-.05,0-.07,0-.3.78-.85,1.43-1.59,1.85-.05.03-.11.06-.16.09-.13.07-.26.12-.4.17-.15.06-.31.1-.47.14h0v-2.42s0-.72,0-.72h1.96s.25,0,.25,0h.07c.19,0,.37.01.56.04.11.02.23.04.34.07.18.05.36.11.53.18,0,0,0,0,0,0,0,0,0,0,0,0,.17.07.34.16.5.26.1.06.19.13.28.2.13.1.25.21.37.32.03.03.06.07.1.1.06.06.11.12.16.19.52.65.81,1.45.81,2.3,0,.06,0,.12,0,.19,0,.14-.02.29-.05.43-.03.16-.07.32-.12.48l-.29-.17h-.01s-.48-.28-.48-.28h0ZM17.91,16.12l-1.14,1.97-2.33-1.35c.08-.21.15-.42.2-.64.02-.07.03-.15.05-.22.06-.28.09-.57.09-.86l.86-.49,1.79-1.03.52-.3h0l.09-.05.16-.09c.1.29.17.58.2.89.07.73-.08,1.49-.48,2.18Z"
                style="fill:#fff; stroke:#231f20; stroke-miterlimit:10; stroke-width:.5px;" />
        </svg>

        <svg id="check-in" xmlns="http://www.w3.org/2000/svg" viewBox="0 0 24 24" fill="currentColor"
                aria-hidden="true">
            <circle cx="9.54" cy="6.73" r="2.48" style="fill:currentColor; stroke-width:0px;" />
            <path
                d="M13.02,14.83h-6.95c-.85,0-1.53-.69-1.53-1.53v-.44c0-1.65,1.34-2.99,2.99-2.99h4.03c1.65,0,2.99,1.34,2.99,2.99v.44c0,.85-.69,1.53-1.53,1.53Z"
                style="fill:currentColor; stroke-width:0px;" />
            <polygon
                points="20.77 8.73 18.91 8.73 18.91 6.87 17.95 6.87 17.95 8.73 16.09 8.73 16.09 9.68 17.95 9.68 17.95 11.54 18.91 11.54 18.91 9.68 20.77 9.68 20.77 8.73"
                style="fill:currentColor; stroke-width:0px;" />
            <path
                d="M18.43,5.06c-.15,0-.3,0-.45.03-.77-1.45-1.9-2.68-3.28-3.57-1.54-.99-3.32-1.51-5.15-1.51C4.28,0,0,4.28,0,9.54s4.28,9.54,9.54,9.54c1.95,0,3.83-.58,5.42-1.69,1.47-1.02,2.61-2.41,3.32-4.04.05,0,.09,0,.14,0,2.29,0,4.15-1.86,4.15-4.15s-1.86-4.15-4.15-4.15ZM9.54,18.13C4.81,18.13.95,14.27.95,9.54S4.81.95,9.54.95c3.09,0,5.96,1.69,7.47,4.35-1.59.58-2.73,2.11-2.73,3.9,0,1.9,1.28,3.5,3.03,3.99-1.41,3.01-4.41,4.93-7.77,4.93ZM18.43,12.4c-1.76,0-3.2-1.43-3.2-3.2s1.43-3.2,3.2-3.2,3.2,1.43,3.2,3.2-1.43,3.2-3.2,3.2Z"
                style="fill:currentColor; stroke-width:0px;" />
        </svg>        
        <svg id="zoom-out" xmlns="http://www.w3.org/2000/svg" viewBox="0 0 24 24" fill="currentColor"
            aria-hidden="true">
            <path fill="none" stroke-linejoin="round" stroke-linecap="round" stroke-width="2" stroke="currentColor"
                d="M19 11a8 8 0 11-16 0 8 8 0 0116 0zM21 21l-4.35-4.35M8 11h6" />
        </svg>
        <svg id="girl" xmlns="http://www.w3.org/2000/svg" viewBox="0 0 24 24" aria-hidden="true">
            <path
                d="M7.01,7.56c.27.08.37.09.75.07.78-.04,1.39-.3,1.96-.84.55-.52.83-1.01.97-1.67.04-.2.08-.39.08-.43,0-.08-.07-.09-.1-.02-.01.03-.05.13-.08.23-.04.1-.13.29-.2.44-.72,1.3-1.99,2.07-3.46,2.07-.14,0-.25.02-.24.03.01.02.16.08.33.13Z"
                style="fill:none; stroke-width:0px;" />
            <path
                d="M3.33,13.59c-.05-.19-.1-.35-.12-.35-.09,0-.45.23-.57.35-.17.18-.31.54-.31.77,0,.54.39,1.03.91,1.14.17.04.25.03.46-.02.14-.04.25-.08.25-.08,0-.01-.04-.12-.1-.25-.17-.41-.45-1.21-.54-1.57Z"
                style="fill:none; stroke-width:0px;" />
            <path
                d="M18.36,13.12c-.27-.09-.35-.21-.41-.72-.09-.75-.24-1.74-.3-1.99-.29-1.17-.75-2-1.55-2.78-.19-.19-.37-.35-.4-.35s-.18.09-.35.2c-.91.59-2.06,1.04-3.25,1.28-.79.16-1.23.2-2.12.2-1.14,0-1.9-.12-2.86-.44-.33-.11-1.14-.5-1.26-.6-.04-.03-.09-.05-.11-.05-.09.03-.53.66-.72,1.04-.43.82-.62,1.64-.84,3.53-.02.21-.07.42-.1.47-.07.11-.29.25-.38.25s-.09.08.07.63c.29,1.03.92,2.42,1.38,3.1.95,1.38,2.39,2.38,4,2.79.19.05.34.09.35.09,0,0-.02.14-.07.3-.04.16-.08.31-.07.35.01.05.32.18,1.37.56l.29.1.2-.07c.34-.12,1.47-.54,1.5-.56.01-.01,0-.14-.05-.29-.04-.15-.07-.3-.08-.33,0-.04.11-.09.39-.15,1.21-.29,2.38-.98,3.29-1.93.74-.77,1.18-1.51,1.74-2.96.19-.47.5-1.45.5-1.56,0-.04-.08-.08-.19-.12ZM5.72,11.42c.32-.28,1.05-.56,1.59-.61.66-.06,1.69.19,1.99.49.1.1.1.29.02.37-.09.1-.25.08-.52-.06-.59-.29-1.22-.42-1.92-.39-.44.02-.77.1-1.13.24l-.16.07.14-.12ZM8.63,15.03c-.55.48-1.37.33-1.7-.33-.1-.2-.12-.28-.12-.54,0-.25.02-.34.11-.5.17-.33.43-.53.77-.62.17-.04.48,0,.7.09.74.33.87,1.35.25,1.9ZM9.38,13.92s-.11-.12-.21-.26c-.31-.46-.68-.69-1.18-.72-.98-.06-1.76.83-1.77,2.04,0,.19-.02.34-.04.34-.07,0-.25-.48-.33-.85-.02-.1-.04-.11-.17-.11-.42,0-.92-.29-1.04-.61l-.04-.11.17.12c.18.13.51.19.72.14l.11-.03-.18-.12c-.19-.12-.38-.37-.48-.61-.1-.24-.06-.25.14-.03.17.17.56.45.64.45.02,0,.04-.04.05-.1.02-.07,0-.14-.07-.23-.13-.17-.21-.34-.24-.51-.03-.18.03-.23.09-.08.03.06.12.18.2.26l.15.15.23-.25c.25-.27.45-.41.83-.55.21-.08.3-.09.67-.08.4.01.44.02.73.16.39.19.68.48.87.87.14.27.23.71.16.71ZM10.87,15.99c.06.02.21.03.33.02.21-.02.21-.02.12.03-.17.1-.56.06-.56-.06,0-.02.04-.02.11,0ZM11.38,17.45c-.37.08-.94-.02-1.02-.16-.06-.11,0-.19.17-.25.23-.09.95-.07,1.13.03.25.14.13.3-.29.39ZM12.8,11.46c.01-.12.04-.16.19-.27.24-.16.78-.34,1.15-.37.77-.07,1.57.11,2.07.47.36.25.39.29.14.18-.35-.16-.6-.21-1.08-.24-.7-.04-1.29.08-1.91.37-.15.08-.32.14-.36.14-.13,0-.21-.11-.2-.27ZM15.3,14.64c-.33.7-1.17.88-1.73.39-.26-.23-.39-.52-.39-.86,0-.55.28-.93.82-1.1.45-.15,1.04.13,1.28.6.14.27.15.71.01.98ZM17.5,13.79c-.14.26-.56.51-.95.55l-.21.02-.04.23c-.05.23-.19.56-.3.7-.06.08-.06.05-.06-.3,0-.47-.08-.81-.27-1.16-.17-.32-.47-.61-.8-.77-.2-.1-.27-.11-.58-.11s-.39.02-.59.11c-.27.13-.61.44-.79.72l-.13.2v-.12c-.03-.15.11-.58.25-.79.26-.4.55-.63,1.02-.8.17-.06.33-.09.54-.09.59,0,.95.15,1.38.58l.29.29.1-.1c.06-.05.15-.17.21-.26.07-.1.12-.15.14-.13.05.08-.06.43-.2.62-.14.2-.17.33-.08.33.12,0,.38-.16.6-.38.12-.12.23-.21.24-.2.01.01-.03.14-.1.27-.12.25-.33.5-.53.63-.1.07-.1.07.16.07.27,0,.53-.08.63-.21.08-.1.13-.04.07.08Z"
                style="fill:none; stroke-width:0px;" />
            <path
                d="M12.73,3.44c-.39-.06-2.22-.11-2.62-.07-.41.04-1.16.18-1.58.29-1.23.32-2.49.95-3.45,1.74-.7.57-1.45,1.49-1.72,2.08-.13.29-.35.92-.33.94,0,0,.1-.13.19-.29.81-1.4,2.16-2.57,3.77-3.29,1.26-.56,2.38-.8,3.89-.84,1.6-.04,2.89.19,4.24.75,1.62.68,3.08,1.95,3.86,3.38.09.16.16.27.16.25,0-.02-.06-.2-.12-.4-.26-.78-.69-1.45-1.34-2.11-1.3-1.3-2.89-2.08-4.95-2.42Z"
                style="fill:none; stroke-width:0px;" />
            <path
                d="M18.95,13.3c0,.1-.32,1.06-.53,1.59-.22.56-.22.54.05.62.32.09.66,0,.95-.26.38-.34.49-.75.34-1.25-.06-.23-.31-.52-.5-.62-.22-.12-.31-.14-.31-.08Z"
                style="fill:none; stroke-width:0px;" />
            <path
                d="M9.28,2.38c-1.83.37-3.52,1.36-4.61,2.7-.18.22-.36.45-.4.52l-.07.12.1-.12c.48-.54.66-.73.98-1,1.64-1.38,3.86-2.11,6.17-2.03.83.03,1.34.1,2.09.28.71.17,1.21.37,1.88.71.98.51,1.88,1.25,2.57,2.12l.09.12-.09-.14c-.48-.74-1.25-1.51-2.08-2.07-1.05-.71-2.22-1.14-3.61-1.32-.51-.06-1.7-.08-2.21-.02-.16.02-.53.08-.81.14Z"
                style="fill:none; stroke-width:0px;" />
            <path
                d="M0,11.01c0,6.08,4.93,11.01,11.01,11.01s11.01-4.93,11.01-11.01S17.08,0,11.01,0,0,4.93,0,11.01ZM3.72,15.49c-.21.06-.29.06-.46.02-.53-.12-.91-.6-.91-1.14,0-.23.14-.59.31-.77.12-.13.48-.35.57-.35.02,0,.07.15.12.35.09.36.37,1.16.54,1.57.05.13.1.23.1.25,0,0-.12.05-.25.08ZM16.31,17.76c-.91.95-2.08,1.63-3.29,1.93-.28.06-.39.11-.39.15,0,.03.04.18.08.33.04.15.06.27.05.29-.03.02-1.16.44-1.5.56l-.2.07-.29-.1c-1.05-.38-1.36-.5-1.37-.56,0-.03.02-.19.07-.35.05-.16.08-.3.07-.3,0,0-.16-.04-.35-.09-1.61-.41-3.05-1.41-4-2.79-.46-.68-1.09-2.07-1.38-3.1-.16-.55-.17-.63-.07-.63s.31-.14.38-.25c.03-.05.08-.26.1-.47.22-1.89.41-2.71.84-3.53.19-.37.63-1.01.72-1.04.02,0,.07.02.11.05.12.1.93.49,1.26.6.96.32,1.72.43,2.86.44.89,0,1.33-.04,2.12-.2,1.19-.24,2.35-.7,3.25-1.28.17-.11.33-.2.35-.2s.21.16.4.35c.79.78,1.25,1.61,1.55,2.78.06.25.21,1.24.3,1.99.06.51.13.64.41.72.11.04.19.08.19.12,0,.11-.31,1.09-.5,1.56-.56,1.45-1,2.18-1.74,2.96ZM6.93,7.4c1.46,0,2.74-.76,3.46-2.07.08-.14.17-.34.2-.44.03-.1.07-.2.08-.23.03-.07.1-.06.1.02,0,.04-.04.23-.08.43-.14.66-.42,1.16-.97,1.67-.57.54-1.18.8-1.96.84-.38.02-.48.01-.75-.07-.17-.05-.31-.11-.33-.13-.01-.02.1-.03.24-.03ZM19.76,14c.15.5.04.91-.34,1.25-.29.25-.63.35-.95.26-.27-.08-.27-.06-.05-.62.21-.52.53-1.49.53-1.59,0-.06.09-.04.31.08.19.1.44.4.5.62ZM19.03,7.97c.06.2.12.38.12.4,0,.02-.07-.09-.16-.25-.78-1.43-2.24-2.7-3.86-3.38-1.35-.56-2.64-.79-4.24-.75-1.5.04-2.63.28-3.89.84-1.61.72-2.96,1.89-3.77,3.29-.1.17-.19.3-.19.29-.02-.02.2-.65.33-.94.26-.59,1.02-1.51,1.72-2.08.97-.79,2.22-1.42,3.45-1.74.42-.11,1.17-.24,1.58-.29.4-.04,2.24,0,2.62.07,2.06.34,3.66,1.12,4.95,2.42.65.66,1.08,1.33,1.34,2.11ZM12.3,2.26c1.38.18,2.56.61,3.61,1.32.83.56,1.61,1.33,2.08,2.07l.09.14-.09-.12c-.68-.87-1.59-1.61-2.57-2.12-.66-.34-1.17-.53-1.88-.71-.75-.18-1.26-.25-2.09-.28-2.31-.08-4.53.65-6.17,2.03-.32.27-.5.45-.98,1l-.1.12.07-.12c.04-.07.22-.3.4-.52,1.09-1.34,2.79-2.33,4.61-2.7.28-.06.64-.12.81-.14.51-.06,1.7-.05,2.21.02Z"
                style="fill:currentColor; stroke-width:0px;" />
            <path
                d="M6.87,11.23c.7-.04,1.33.09,1.92.39.27.13.43.15.52.06.09-.08.08-.28-.02-.37-.3-.3-1.32-.55-1.99-.49-.54.05-1.27.33-1.59.61l-.14.12.16-.07c.36-.15.7-.22,1.13-.24Z"
                style="fill:currentColor; stroke-width:0px;" />
            <path
                d="M13,11.73s.21-.06.36-.14c.62-.29,1.22-.41,1.91-.37.48.03.73.08,1.08.24.25.11.22.08-.14-.18-.51-.36-1.31-.54-2.07-.47-.37.03-.91.21-1.15.37-.15.1-.18.15-.19.27-.01.16.07.27.2.27Z"
                style="fill:currentColor; stroke-width:0px;" />
            <path
                d="M8.36,12.34c-.28-.14-.33-.15-.73-.16-.37-.01-.46,0-.67.08-.37.14-.58.28-.83.55l-.23.25-.15-.15c-.08-.08-.17-.2-.2-.26-.06-.15-.12-.1-.09.08.03.17.11.34.24.51.07.09.09.16.07.23-.01.06-.04.1-.05.1-.08,0-.47-.27-.64-.45-.21-.22-.24-.21-.14.03.1.24.29.48.48.61l.18.12-.11.03c-.21.05-.54-.01-.72-.14l-.17-.12.04.11c.12.31.62.61,1.04.61.13,0,.15.01.17.11.08.36.26.85.33.85.02,0,.04-.15.04-.34.02-1.21.79-2.1,1.77-2.04.5.03.87.26,1.18.72.1.14.19.26.21.26.07,0-.02-.43-.16-.71-.19-.39-.48-.68-.87-.87Z"
                style="fill:currentColor; stroke-width:0px;" />
            <path
                d="M17.43,13.71c-.1.12-.36.21-.63.21-.25,0-.26,0-.16-.07.2-.13.41-.39.53-.63.06-.14.11-.26.1-.27,0-.01-.12.08-.24.2-.22.21-.48.38-.6.38-.1,0-.07-.13.08-.33.14-.19.25-.54.2-.62-.02-.03-.07.03-.14.13-.06.1-.15.21-.21.26l-.1.1-.29-.29c-.43-.43-.79-.59-1.38-.58-.21,0-.37.03-.54.09-.47.17-.76.41-1.02.8-.14.2-.27.63-.26.79v.12s.14-.2.14-.2c.18-.29.52-.6.79-.72.2-.09.28-.11.59-.11s.39.02.58.11c.33.16.63.45.8.77.19.35.27.69.27,1.16,0,.35,0,.37.06.3.11-.14.25-.47.3-.7l.04-.23.21-.02c.39-.04.81-.29.95-.55.06-.12.01-.18-.07-.08Z"
                style="fill:currentColor; stroke-width:0px;" />
            <path
                d="M8.38,13.13c-.21-.09-.52-.13-.7-.09-.34.09-.6.29-.77.62-.09.16-.11.25-.11.5,0,.26.02.34.12.54.34.66,1.16.81,1.7.33.62-.55.48-1.57-.25-1.9Z"
                style="fill:currentColor; stroke-width:0px;" />
            <path
                d="M14,13.06c-.54.17-.82.55-.82,1.1,0,.35.13.64.39.86.56.49,1.39.31,1.73-.39.14-.27.13-.71-.01-.98-.25-.47-.83-.75-1.28-.6Z"
                style="fill:currentColor; stroke-width:0px;" />
            <path d="M11.32,16.04c.1-.06.09-.06-.12-.03-.12.01-.27,0-.33-.02-.07-.02-.11-.03-.11,0,0,.12.39.16.56.06Z"
                style="fill:currentColor; stroke-width:0px;" />
            <path
                d="M11.67,17.07c-.18-.1-.9-.12-1.13-.03-.18.06-.23.14-.17.25.08.15.65.24,1.02.16.42-.08.54-.25.29-.39Z"
                style="fill:currentColor; stroke-width:0px;" />
        </svg>
        <svg id="boy" xmlns="http://www.w3.org/2000/svg" viewBox="0 0 24 24" aria-hidden="true">
            <path
                d="M21.29,11.38c0-.08,0-.17-.01-.25,0-.08-.01-.17-.02-.25,0-.08-.02-.17-.03-.25,0-.08-.02-.17-.03-.25-.01-.08-.02-.17-.04-.25-.01-.08-.03-.17-.04-.25-.02-.08-.03-.16-.05-.25-.02-.08-.04-.16-.06-.24-.02-.08-.04-.16-.06-.24-.02-.08-.04-.16-.07-.24-.02-.08-.05-.16-.07-.24-.03-.08-.05-.16-.08-.24-.03-.08-.06-.16-.09-.24-.03-.08-.06-.16-.09-.23-.03-.08-.06-.15-.1-.23-.03-.08-.07-.15-.1-.23s-.07-.15-.11-.23c-.04-.08-.07-.15-.11-.22-.04-.07-.08-.15-.12-.22-.04-.07-.08-.15-.12-.22-.04-.07-.09-.14-.13-.22-.04-.07-.09-.14-.14-.21-.05-.07-.09-.14-.14-.21-.05-.07-.1-.14-.15-.21-.05-.07-.1-.13-.15-.2-.05-.07-.1-.13-.16-.2-1.16-1.44-2.78-2.65-4.51-3.31.51.37.9.76,1.26,1.28.11.15.2.38.32.5.12.12.38.27.52.38.27.2.53.43.78.66.05.05.1.09.14.14.05.05.09.09.14.14.05.05.09.09.14.14.05.05.09.1.14.15.04.05.09.1.13.15.04.05.09.1.13.15.04.05.08.1.13.15.04.05.08.1.12.16.04.05.08.11.12.16.04.05.08.11.12.16.04.05.08.11.11.16.04.05.07.11.11.17.04.06.07.11.11.17.03.06.07.11.1.17.03.06.07.11.1.17.03.06.06.12.09.17.03.06.06.12.09.18.03.06.06.12.09.18.03.06.06.12.08.18.03.06.05.12.08.18.03.06.05.12.08.18.02.06.05.12.07.19.02.06.05.12.07.19.02.06.04.13.06.19.02.06.04.13.06.19.02.06.04.13.06.19.02.06.04.13.05.19.02.06.03.13.05.19.02.06.03.13.04.19.01.06.03.13.04.19.01.07.02.13.04.2.01.07.02.13.03.2.37,2.35-.16,4.88-1.55,6.83-.2-.16-.39-.34-.6-.49.04-.06.08-.12.12-.18.04-.06.08-.12.11-.18.04-.06.07-.12.11-.18.04-.06.07-.12.1-.19.03-.06.07-.13.1-.19.03-.06.06-.13.09-.19.03-.06.06-.13.09-.19.03-.06.06-.13.08-.2.03-.07.05-.13.08-.2.03-.07.05-.13.07-.2.02-.07.05-.13.07-.2.02-.07.04-.13.07-.2.02-.07.04-.14.06-.2.02-.07.04-.14.06-.21.02-.07.03-.14.05-.21.02-.07.03-.14.05-.21.01-.07.03-.14.04-.21.01-.07.02-.14.03-.21.01-.07.02-.14.03-.21,0-.07.02-.14.02-.21,0-.07.01-.14.02-.21,0-.07.01-.14.01-.21,0-.07,0-.14,0-.21,0-.07,0-.14,0-.21,0-.07,0-.14,0-.21,0-.07,0-.14,0-.21,0-.07,0-.14-.01-.21,0-.07-.01-.14-.02-.21,0-.07-.01-.14-.02-.21,0-.07-.02-.14-.03-.21,0-.07-.02-.14-.03-.21-.01-.07-.02-.14-.04-.21-.39-2.04-1.43-3.76-3-5.12.19,1.13.09,2.23-.26,3.32-.07-.01-.14-.03-.22-.03.09-.37.18-.74.24-1.12.19-1.27.03-2.58-.66-3.68-.45-.71-1.02-1.2-1.74-1.63-.38-.22-.79-.42-1.22-.54.92-.11,1.6-.02,2.48.27-.04-.02-.07-.05-.11-.07-.04-.02-.07-.05-.11-.07-.04-.02-.07-.04-.11-.07-.04-.02-.07-.04-.11-.06-.04-.02-.08-.04-.11-.06-.04-.02-.08-.04-.12-.06-.04-.02-.08-.04-.12-.06-.04-.02-.08-.04-.12-.05-.04-.02-.08-.03-.12-.05-.04-.02-.08-.03-.12-.05-.04-.02-.08-.03-.12-.04-.04-.01-.08-.03-.12-.04-.04-.01-.08-.03-.12-.04-.04-.01-.08-.02-.12-.04-.04-.01-.08-.02-.12-.03-.04-.01-.08-.02-.13-.03-.04,0-.08-.02-.13-.03-.04,0-.08-.02-.13-.02-.04,0-.08-.02-.13-.02-.04,0-.09-.01-.13-.02-.04,0-.09-.01-.13-.02-.04,0-.09,0-.13-.01-.04,0-.09,0-.13-.01-.04,0-.09,0-.13,0-.04,0-.09,0-.13,0-.04,0-.09,0-.13,0-.04,0-.09,0-.13,0-.04,0-.09,0-.13,0-.04,0-.09,0-.13,0-.04,0-.09,0-.13.01-.04,0-.09,0-.13.01-.04,0-.09.01-.13.02-.12.02-.59.12-.67.02,0-.05.03-.07.06-.1.49-.36,2.15-.46,2.76-.36.01,0,.03,0,.04,0-1.46-.5-3.23-.31-4.6.36-.54.26-1.02.58-1.46.99.44-.9,1.16-1.35,2.08-1.67.04-.02.09-.03.13-.05-.02,0-.03,0-.05,0-.9.08-1.79.36-2.39,1.08-.29.36-.47.76-.62,1.2-.2-.44-.22-.91-.04-1.37.06-.17.15-.33.26-.47-.43.32-.72.63-.8,1.18-.04.28,0,.56.03.84-.32-.15-.53-.38-.69-.7.02.37.12.68.4.94.15.13.32.23.51.29-.85.78-1.19,1.98-1.23,3.1-.03.79.11,1.53.31,2.29h-.2c-.08-.27-.17-.56-.24-.85-.18-.76-.25-1.59-.1-2.37-.37.33-.73.68-1.05,1.07-.04.04-.07.09-.11.14-.04.05-.07.09-.11.14-.04.05-.07.09-.1.14-.03.05-.07.09-.1.14-.03.05-.07.1-.1.14-.03.05-.06.1-.1.15-.03.05-.06.1-.09.15-.03.05-.06.1-.09.15-.03.05-.06.1-.09.15-.03.05-.06.1-.08.15-.03.05-.05.1-.08.15-.03.05-.05.1-.08.16-.03.05-.05.1-.07.16-.02.05-.05.11-.07.16-.02.05-.05.11-.07.16-.02.05-.04.11-.06.16-.02.05-.04.11-.06.16-.02.05-.04.11-.06.16-.02.05-.04.11-.06.17-.02.06-.04.11-.05.17-.02.06-.03.11-.05.17-.02.06-.03.11-.04.17-.01.06-.03.11-.04.17-.01.06-.03.11-.04.17-.01.06-.02.11-.03.17-.01.06-.02.11-.03.17,0,.06-.02.11-.03.17,0,.06-.02.11-.02.17,0,.06-.01.12-.02.17,0,.06-.01.12-.02.17,0,.06,0,.12-.01.17,0,.06,0,.12-.01.17,0,.09,0,.19-.01.28,0,.09,0,.19,0,.28,0,.09,0,.19,0,.28,0,.09,0,.19.01.28,0,.09.01.19.02.28,0,.09.02.19.03.28.01.09.03.19.04.28.02.09.03.19.05.28.02.09.04.19.06.28s.04.18.07.28c.02.09.05.18.08.27.03.09.06.18.08.27.03.09.06.18.09.27.03.09.07.18.1.27.04.09.07.18.11.26.04.09.08.17.12.26.09.19.2.39.31.57.08.13.17.26.24.4-.2.15-.4.32-.58.5-.04-.06-.09-.13-.13-.2-.04-.07-.08-.13-.13-.2-.04-.07-.08-.13-.12-.2-.04-.07-.08-.14-.12-.2-.04-.07-.07-.14-.11-.21-.04-.07-.07-.14-.11-.21-.03-.07-.07-.14-.1-.21-.03-.07-.06-.14-.09-.21-.03-.07-.06-.14-.09-.22-.03-.07-.06-.15-.08-.22-.03-.07-.05-.15-.08-.22-.03-.07-.05-.15-.07-.22-.02-.07-.05-.15-.07-.22-.02-.08-.04-.15-.06-.23-.02-.08-.04-.15-.06-.23-.02-.08-.03-.15-.05-.23-.02-.08-.03-.15-.04-.23-.01-.08-.03-.15-.04-.23-.01-.08-.02-.15-.03-.23-.01-.08-.02-.16-.03-.23,0-.08-.02-.16-.02-.23,0-.08-.01-.16-.02-.23,0-.08,0-.16-.01-.23,0-.08,0-.16,0-.23,0-.08,0-.16,0-.23,0-.08,0-.16,0-.23,0-.08,0-.16.01-.23,0-.08.01-.16.02-.23,0-.08.02-.16.02-.23,0-.08.02-.16.03-.23.01-.08.02-.15.04-.23.01-.08.03-.15.04-.23.4-2.02,1.34-3.73,2.84-5.15.22-.21.45-.41.69-.6.12-.1.42-.28.5-.39.09-.11.15-.28.22-.4.09-.16.2-.32.31-.46-.12-.08-.24-.16-.35-.25-.42.22-.84.54-1.21.83-.05.04-.1.08-.16.12-.05.04-.1.08-.15.13-.05.04-.1.09-.15.13-.05.04-.1.09-.15.13-.05.04-.1.09-.15.14-.05.05-.1.09-.14.14-.05.05-.09.09-.14.14-.05.05-.09.1-.14.14-.05.05-.09.1-.14.15-.04.05-.09.1-.13.15-.04.05-.09.1-.13.15-.04.05-.09.1-.13.15-.04.05-.08.1-.12.16-.04.05-.08.11-.12.16-.04.05-.08.11-.12.16-.04.05-.08.11-.12.16-.04.05-.08.11-.11.17-.04.06-.07.11-.11.17-.04.06-.07.11-.11.17-.03.06-.07.11-.1.17-.03.06-.07.12-.1.17-.03.06-.06.12-.1.18-.03.06-.06.12-.09.18-.03.06-.06.12-.09.18-.03.06-.06.12-.09.18-.03.06-.06.12-.08.18-.03.06-.05.12-.08.18-.03.06-.05.12-.08.19-.02.06-.05.12-.07.19-.02.06-.05.12-.07.19-.02.06-.04.13-.06.19-.02.06-.04.13-.06.19-.02.06-.04.13-.06.19-.02.06-.04.13-.05.19-.02.06-.03.13-.05.19-.02.07-.03.13-.05.2-.01.07-.03.13-.04.2-.01.07-.03.13-.04.2-.01.07-.02.13-.03.2-.01.07-.02.13-.03.2,0,.07-.02.13-.03.2,0,.07-.02.13-.02.2,0,.07-.01.13-.02.2,0,.07-.01.13-.01.2,0,.07,0,.13-.01.2,0,.07,0,.13,0,.2,0,.07,0,.13,0,.2,0,.07,0,.13,0,.2,0,.07,0,.13,0,.2,0,.07,0,.13,0,.2,0,.07,0,.13.01.2,0,.07.01.13.02.2,0,.07.01.13.02.2,0,.07.02.13.02.2,0,.07.02.13.03.2,0,.07.02.13.03.2.01.07.02.13.04.2.01.07.03.13.04.2.01.07.03.13.04.2.02.07.03.13.05.2.02.07.03.13.05.19.02.06.04.13.05.19.02.06.04.13.06.19.02.06.04.13.06.19.16.49.36.98.61,1.44.04.08.08.16.13.24.04.08.09.16.13.23.05.08.09.15.14.23s.1.15.15.23c.05.07.1.15.15.22.05.07.1.15.16.22.05.07.11.14.16.21.05.07.11.14.17.21.06.07.11.14.17.21.06.07.12.14.18.2.06.07.12.13.18.2.06.06.12.13.19.19.06.06.13.13.19.19.06.06.13.12.2.18.07.06.13.12.2.18.07.06.14.12.21.17.07.06.14.11.21.17.07.06.14.11.21.16.07.05.14.11.22.16.07.05.15.1.22.15.07.05.15.1.23.15.08.05.15.09.23.14.08.05.15.09.23.13.08.04.16.09.24.13.08.04.16.08.24.12.08.04.16.08.24.12.08.04.16.08.24.11.08.04.16.07.25.1.08.03.17.07.25.1.08.03.17.06.25.09.08.03.17.06.25.09.09.03.17.05.26.08.08.02.17.05.25.07.08.02.17.04.25.06.08.02.17.04.25.06.08.02.17.04.25.05.08.02.17.03.25.05.09.01.17.03.26.04.09.01.17.02.26.03s.17.02.26.03c.09,0,.17.02.26.02.09,0,.17.01.26.01.09,0,.17,0,.26,0,.09,0,.17,0,.26,0,.09,0,.17,0,.26,0,.09,0,.17,0,.26-.01.09,0,.17,0,.26-.02.09,0,.17-.01.26-.02.09,0,.17-.02.26-.03.09-.01.17-.02.26-.04.09-.01.17-.03.26-.04.08-.01.17-.03.25-.05.08-.02.17-.03.25-.05.08-.02.17-.04.25-.06.08-.02.17-.04.25-.07.08-.02.17-.05.25-.07.08-.02.16-.05.25-.08.08-.03.16-.05.24-.08.08-.03.16-.06.24-.09.08-.03.16-.06.24-.1.08-.03.16-.07.24-.1.08-.03.16-.07.24-.11.08-.04.16-.07.23-.11.08-.04.15-.08.23-.12.15-.08.29-.16.44-.25.14-.09.29-.17.43-.27.14-.09.28-.19.41-.29.14-.1.27-.2.4-.31,2.22-1.8,3.62-4.26,3.92-7.12,0-.08.02-.17.02-.25,0-.08.01-.17.02-.25,0-.08,0-.17.01-.25,0-.08,0-.17,0-.25,0-.08,0-.17,0-.25,0-.08,0-.17,0-.25ZM15.68,10.56s.03-.06.05-.09c.01-.03.03-.06.04-.09.01-.03.02-.06.03-.09.03-.11.04-.26-.03-.36-.05-.08-.11-.11-.2-.12,0-.02,0-.05.01-.07.03-.17.17-.36.31-.45.06-.04.14-.06.21-.04.07.02.12.07.15.13.14.27.03.64-.06.91.16-.18.26-.43.27-.67,0-.17-.02-.37-.14-.5-.06-.06-.14-.1-.22-.1-.17,0-.32.1-.44.21.01-.17.03-.35.06-.52.1-.06.2-.09.32-.11.14-.01.28.02.4.09.18.11.29.29.33.49.09.38-.03.77-.24,1.09-.31.5-.78.98-1.37,1.11.08-.23.16-.47.22-.7.07-.24.12-.48.17-.72h.02s.03,0,.03,0c.06.08.07.23.08.33,0,.12-.03.23-.06.34.02-.03.04-.05.06-.08ZM6.34,7.43c.16-.18.28-.37.37-.59.24-.63.2-1.37.21-2.03,0-.2.02-.4.03-.6.13.49.29.93.61,1.33.42.52,1.04.88,1.68,1.04.24.06.48.09.73.12-.27-.12-.5-.27-.73-.46-.62-.53-.96-1.16-1.02-1.97.07.15.13.31.2.45.03.05.06.11.09.16.03.05.06.1.09.15.03.05.07.1.1.15.04.05.07.1.11.14.04.05.08.09.12.14.04.04.08.09.12.13s.09.08.13.13c.04.04.09.08.14.12.02.02.04.03.06.05.02.02.04.03.07.05.02.02.04.03.07.05.02.02.05.03.07.05.02.02.05.03.07.05.02.01.05.03.07.04.02.01.05.03.07.04.02.01.05.03.07.04.02.01.05.03.07.04.02.01.05.02.07.04.02.01.05.02.07.03.03.01.05.02.08.03.03.01.05.02.08.03.03,0,.05.02.08.03.03,0,.05.02.08.03.03,0,.05.02.08.03.03,0,.05.02.08.02.03,0,.05.01.08.02.03,0,.05.01.08.02.03,0,.05.01.08.02.03,0,.05.01.08.02.03,0,.05,0,.08.01.03,0,.05,0,.08.01.03,0,.05,0,.08,0,.03,0,.05,0,.08,0,.03,0,.05,0,.08,0,.03,0,.05,0,.08,0,.03,0,.06,0,.08,0,.03,0,.05,0,.08,0,.03,0,.06,0,.08,0,.03,0,.05,0,.08,0,.03,0,.05,0,.08,0-.32-.1-.62-.22-.9-.41-.67-.45-1.02-1.05-1.16-1.83.07.1.13.22.2.32.15.22.33.42.53.6.66.59,1.6.86,2.47.81-.07-.03-.15-.05-.22-.08-.07-.03-.14-.06-.21-.1-.07-.03-.14-.07-.21-.11-.07-.04-.14-.08-.2-.12-.43-.29-.87-.77-.97-1.29-.05-.24-.02-.44.12-.65.07,0,.15,0,.22-.01.91,0,1.94.17,2.63.81.21.2.39.43.5.71.2.53.15,1.14.28,1.68.07.27.21.47.34.71.16.29.22.61.23.94.02.53-.08,1.08-.2,1.59-.3,1.31-.74,2.47-1.68,3.47-.75.8-1.76,1.35-2.87,1.38-1.01.03-1.99-.45-2.7-1.13-1.15-1.09-1.63-2.41-1.94-3.93-.09-.45-.2-.91-.2-1.37-.01-.5.17-.79.52-1.14ZM13.85,15.3c.07.1.11.2.09.32-.02.13-.08.26-.14.38-.01.03-.03.06-.05.09-.02.03-.03.06-.05.09-.02.03-.03.06-.05.09-.02.03-.04.06-.05.09-.02.03-.04.06-.06.08-.02.03-.04.06-.06.08-.02.03-.04.05-.06.08-.02.03-.04.05-.06.08-.02.03-.04.05-.07.08-.02.03-.05.05-.07.07-.02.02-.05.05-.07.07-.02.02-.05.05-.07.07-.02.02-.05.05-.08.07-.03.02-.05.04-.08.07-.03.02-.05.04-.08.06-.03.02-.05.04-.08.06-.02.02-.05.04-.07.05-.03.02-.05.03-.08.05-.03.02-.05.03-.08.05-.03.02-.05.03-.08.05-.03.02-.05.03-.08.04-.03.01-.05.03-.08.04-.03.01-.05.03-.08.04-.03.01-.05.03-.08.04-.03.01-.06.02-.08.04-.03.01-.06.02-.08.03-.03.01-.06.02-.08.03-.03.01-.06.02-.09.03-.03,0-.06.02-.09.03-.03,0-.06.02-.09.03-.03,0-.06.02-.09.02-.03,0-.06.02-.09.02-.03,0-.06.01-.09.02-.03,0-.06.01-.09.02-.03,0-.06.01-.09.02-.03,0-.06,0-.09.01-.03,0-.06,0-.09.01-.03,0-.06,0-.09,0-.03,0-.06,0-.09,0-.03,0-.06,0-.09,0-.03,0-.06,0-.09,0-.03,0-.06,0-.09,0-.03,0-.06,0-.09,0-.03,0-.06,0-.09,0-.03,0-.06,0-.09,0-.03,0-.06,0-.09,0-.03,0-.06,0-.09-.01-.03,0-.06,0-.09-.01-.93-.15-1.73-.67-2.27-1.43-.05-.07-.09-.14-.13-.21-.09-.15-.16-.32-.21-.48-.03-.08-.05-.18-.04-.27.04-.18.41-.44.54-.63.09-.14.14-.3.18-.46.25.2.54.39.84.53.27.49.61.93,1.12,1.17.34.16.72.18,1.07.05.59-.22,1.02-.74,1.28-1.3.3-.14.57-.32.84-.52.02.03.09.35.16.46.12.21.33.32.47.51ZM5.76,16.06c-.32.16-.67.28-1,.43l.03,2.01c0,.37.02.75.02,1.12-.38-.28-.73-.6-1.07-.92-.37-.36-.72-.74-1.02-1.16.8-.86,1.92-1.31,3-1.69,0,0,.02,0,.03,0,.02.07,0,.14,0,.21ZM5.4,11.01s-.03-.02-.04-.03c-.01-.01-.03-.02-.04-.03-.01-.01-.03-.02-.04-.03-.01-.01-.03-.02-.04-.04-.01-.01-.03-.02-.04-.04-.01-.01-.03-.02-.04-.04-.01-.01-.03-.03-.04-.04-.01-.01-.02-.03-.04-.04-.01-.01-.02-.03-.04-.04-.01-.01-.02-.03-.03-.04-.01-.01-.02-.03-.03-.04-.01-.01-.02-.03-.03-.04-.01-.01-.02-.03-.03-.04-.01-.01-.02-.03-.03-.04-.01-.01-.02-.03-.03-.04,0-.02-.02-.03-.03-.05,0-.02-.02-.03-.03-.05,0-.02-.02-.03-.03-.05,0-.02-.02-.03-.03-.05,0-.02-.02-.03-.02-.05,0-.02-.02-.03-.02-.05,0-.02-.01-.03-.02-.05,0-.02-.01-.03-.02-.05,0-.02-.01-.03-.02-.05,0-.02-.01-.03-.02-.05,0-.02-.01-.03-.02-.05,0-.02-.01-.03-.02-.05,0-.02,0-.03-.01-.05,0-.02,0-.03-.01-.05,0-.02,0-.03-.01-.05,0-.02,0-.04-.01-.05,0-.02,0-.04,0-.05-.04-.23-.02-.49.13-.69.11-.15.27-.21.45-.24.15-.02.29.04.43.1.02.17.05.33.08.49-.11-.09-.23-.18-.37-.21-.09-.02-.18,0-.25.05-.1.07-.15.2-.17.32-.05.33.1.74.29,1-.03-.07-.06-.14-.08-.21-.08-.23-.15-.61-.03-.84.03-.06.08-.1.14-.12.09-.02.19.02.26.07.15.1.23.21.27.39-.08.11-.15.24-.17.38-.02.18.07.34.18.47l.04.03h.02c-.03-.07-.06-.14-.08-.21-.03-.13,0-.24.08-.35.07.25.13.5.2.75.06.2.13.4.17.61-.24-.07-.5-.22-.71-.36ZM18.09,18.12c-.49.55-1.03,1.01-1.6,1.47,0-.54-.02-1.09-.05-1.63-.02-.52-.04-1.03-.06-1.55-.36-.13-.72-.27-1.08-.42-.03.12-.08.24-.12.35-.02.04-.03.09-.05.13-.02.04-.04.09-.06.13-.02.04-.04.08-.06.13-.02.04-.04.08-.06.12-.02.04-.04.08-.07.12-.02.04-.05.08-.07.12-.02.04-.05.08-.07.12-.03.04-.05.08-.08.12-.03.04-.05.08-.08.11-.03.04-.06.07-.08.11-.03.04-.06.07-.09.11-.03.04-.06.07-.09.11-.03.03-.06.07-.09.1-.03.03-.06.07-.1.1-.03.03-.07.07-.1.1-.03.03-.07.06-.1.09-.03.03-.06.05-.09.08-.03.03-.06.05-.09.08-.03.03-.06.05-.09.07-.03.02-.06.05-.1.07-.03.02-.06.05-.1.07-.03.02-.07.05-.1.07-.03.02-.07.04-.1.06-.03.02-.07.04-.1.06-.03.02-.07.04-.1.06-.03.02-.07.04-.11.06-.04.02-.07.04-.11.05-.04.02-.07.03-.11.05-.04.02-.07.03-.11.05-.04.02-.07.03-.11.05-.04.01-.07.03-.11.04-.04.01-.07.03-.11.04-.04.01-.08.03-.11.04-.04.01-.08.02-.11.04-.04.01-.08.02-.12.03-.04.01-.08.02-.12.03-.04,0-.08.02-.12.03-.04,0-.08.02-.12.02-.04,0-.08.01-.12.02-.04,0-.08.01-.12.02s-.08.01-.12.02c-.04,0-.08,0-.12.01-.04,0-.08,0-.12,0-.04,0-.08,0-.12,0-.04,0-.08,0-.12,0-.04,0-.08,0-.12,0-.04,0-.08,0-.12,0-.04,0-.08,0-.12,0-.04,0-.07,0-.11,0-.04,0-.07,0-.11,0-.04,0-.07,0-.11-.01-.04,0-.07,0-.11-.01-.04,0-.07,0-.11-.02-.03,0-.07-.01-.1-.02-.03,0-.07-.01-.1-.02-.03,0-.07-.01-.1-.02-.03,0-.07-.02-.1-.02-.03,0-.07-.02-.1-.03-.03,0-.07-.02-.1-.03-.03,0-.07-.02-.1-.03-.03-.01-.07-.02-.1-.03-.03-.01-.07-.02-.1-.04-.03-.01-.07-.02-.1-.04-.03-.01-.07-.03-.1-.04-.03-.01-.07-.03-.1-.04-.03-.01-.06-.03-.1-.04-.03-.01-.06-.03-.1-.05-.03-.02-.06-.03-.09-.05-.03-.02-.06-.03-.09-.05-.03-.02-.06-.03-.09-.05-.03-.02-.06-.04-.09-.05-.03-.02-.06-.04-.09-.06-.03-.02-.06-.04-.09-.06-.03-.02-.06-.04-.09-.06-.03-.02-.06-.04-.09-.06-.03-.02-.06-.04-.09-.06-.03-.02-.06-.04-.08-.06-.03-.02-.06-.04-.08-.07-.03-.02-.05-.05-.08-.07-.03-.02-.05-.05-.08-.07-.58-.51-1.19-1.36-1.24-2.15-.01-.22.06-.41.21-.58.27-.3.68-.4,1.07-.42-.14.13-.29.25-.31.46-.04.49.38,1.14.69,1.49.69.79,1.63,1.23,2.67,1.3,1,.07,2.03-.25,2.79-.92.41-.36.74-.8.95-1.3.06-.14.12-.29.12-.44.01-.25-.16-.43-.31-.6.02,0,.05,0,.07,0,.38.05.79.22,1.07.49.05.05.1.12.14.18.03.03.05.05.08.07.14.07.3.12.44.18.48.19.98.35,1.44.6.52.28.96.62,1.36,1.05-.13.21-.3.4-.46.58Z"
                style="fill:currentColor; stroke-width:0px;" />
            <path
                d="M11.57,10.99c.02.07.02.13-.01.2-.03.06-.07.1-.14.12-.03,0-.07.02-.11.02,0,.03.04.05.07.06,0,0,.01,0,.02.01.08,0,.17-.04.22-.11.05-.06.06-.15.05-.22-.02-.12-.1-.22-.19-.29-.09-.06-.2-.11-.31-.13.15.07.34.16.4.33Z"
                style="fill:currentColor; stroke-width:0px;" />
            <path
                d="M9.77,11.37c.07.03.13.03.2,0l.04-.04h0s0-.01-.01,0c-.06,0-.12,0-.17-.03-.05-.04-.1-.13-.1-.19,0-.08.03-.16.08-.22.1-.11.23-.17.36-.22h-.02c-.18.05-.37.12-.47.29-.05.08-.06.17-.03.26.02.07.06.13.13.16Z"
                style="fill:currentColor; stroke-width:0px;" />
            <path
                d="M11.18,11.19c.08,0,.25.08.31-.02.02-.03.02-.07,0-.1-.02-.05-.07-.08-.12-.1-.06-.02-.12-.02-.18-.01-.17.03-.29.11-.39.24-.03.04-.05.08-.07.13.09-.04.18-.08.28-.11.05-.01.11-.03.17-.03Z"
                style="fill:currentColor; stroke-width:0px;" />
            <path
                d="M9.84,11.05s-.03.06-.01.09c.01.03.05.05.08.06.09.03.18-.01.27-.01.09,0,.17.04.25.07l.18.07c-.07-.16-.16-.29-.33-.35-.08-.03-.15-.04-.23-.04-.08.02-.15.03-.2.1Z"
                style="fill:currentColor; stroke-width:0px;" />
            <path
                d="M10.26,13.04c-.09-.02-.17-.06-.26-.08.19.18.4.35.68.34.19,0,.38-.11.53-.23l.15-.12c-.35.16-.72.19-1.09.09Z"
                style="fill:currentColor; stroke-width:0px;" />
            <path
                d="M9.54,12.27c.57.3,1.13.4,1.76.21.24-.08.48-.19.69-.33h0s0-.02,0-.02c-.05.02-.11.03-.16.05-.05.01-.11.03-.16.04-.05.01-.11.02-.17.03-.06.01-.11.02-.17.03-.06,0-.11.02-.17.02-.06,0-.11.01-.17.02-.06,0-.11,0-.17,0-.06,0-.11,0-.17,0-.06,0-.11,0-.17,0-.06,0-.11,0-.17,0-.06,0-.11,0-.17-.01-.06,0-.11-.01-.17-.02-.06,0-.11-.02-.17-.03-.06,0-.11-.02-.17-.03-.06-.01-.11-.02-.16-.04-.05-.01-.11-.03-.16-.04.07.05.14.09.22.14Z"
                style="fill:currentColor; stroke-width:0px;" />
            <path
                d="M9.41,8.16c-.08-.19-.19-.29-.38-.37-.18-.08-.37-.1-.57-.1-.39.02-.73.13-1,.42-.08.09-.15.19-.21.3.25-.17.49-.28.79-.34.47-.07.91-.02,1.37.1Z"
                style="fill:currentColor; stroke-width:0px;" />
            <path
                d="M13.32,8.08c.26.06.51.15.72.33-.16-.31-.4-.54-.74-.65-.04-.01-.09-.03-.13-.04-.05-.01-.09-.02-.14-.02-.05,0-.09,0-.14,0-.05,0-.09,0-.14,0-.26.03-.6.1-.78.32-.04.05-.07.11-.09.17.47-.13.96-.2,1.44-.1Z"
                style="fill:currentColor; stroke-width:0px;" />
            <path
                d="M13.1,8.94c-.13-.05-.27-.08-.41-.07-.26.04-.48.16-.63.37,0,.01-.01.02-.02.03,0,.01-.01.02-.02.03,0,.01-.01.02-.02.03,0,.01-.01.02-.02.03,0,.01-.01.02-.01.03,0,.01,0,.02-.01.03,0,.01,0,.02-.01.04,0,.01,0,.02,0,.04,0,.01,0,.02,0,.04,0,.01,0,.02,0,.04,0,.01,0,.02,0,.04,0,.01,0,.02,0,.04,0,.01,0,.02,0,.04,0,.01,0,.02,0,.04,0,.01,0,.02,0,.04,0,.01,0,.02,0,.04,0,.05.03.1.04.15,0-.25.05-.41.22-.6-.04.16-.05.31.04.46.08.13.21.23.35.26.12.03.23.02.34-.02.15-.08.26-.19.32-.35.04-.14.02-.3-.05-.43-.04-.07-.09-.12-.14-.18.26.09.44.28.63.47-.12-.29-.29-.51-.59-.64ZM12.91,9.43c-.01.06-.05.09-.1.12-.01,0-.03,0-.04,0,0,0,0,0-.01,0,0,0,0,0-.01,0,0,0,0,0-.01,0,0,0,0,0-.01,0,0,0,0,0-.01,0,0,0,0,0-.01,0,0,0,0,0-.01,0,0,0,0,0-.01-.01-.03-.03-.03-.07-.03-.11,0-.06.04-.09.09-.13.03,0,.05,0,.08,0,.03,0,.07.03.09.05.02.03.03.07.02.1Z"
                style="fill:currentColor; stroke-width:0px;" />
            <path
                d="M9.35,9.44s0-.03-.01-.04c0-.01-.01-.03-.02-.04,0-.01-.01-.02-.02-.04,0-.01-.01-.02-.02-.04,0-.01-.01-.02-.02-.04,0-.01-.02-.02-.02-.03,0-.01-.02-.02-.02-.03,0-.01-.02-.02-.03-.03,0-.01-.02-.02-.03-.03,0,0-.02-.02-.03-.03-.01,0-.02-.02-.03-.03-.01,0-.02-.02-.03-.03-.01,0-.02-.02-.03-.02-.01,0-.02-.02-.03-.02-.01,0-.02-.01-.04-.02-.01,0-.02-.01-.04-.02-.16-.08-.33-.1-.5-.09-.28.04-.53.18-.71.41-.07.1-.12.21-.17.32.19-.22.37-.38.63-.5-.12.12-.2.25-.2.43,0,0,0,.02,0,.03,0,0,0,.02,0,.03,0,0,0,.02,0,.03,0,0,0,.02,0,.03,0,0,0,.02,0,.03,0,0,0,.02,0,.03,0,0,0,.02,0,.03,0,0,0,.02.01.03,0,0,0,.02.01.03,0,0,0,.02.01.02,0,0,0,.02.01.02,0,0,0,.02.02.02,0,0,.01.02.02.02,0,0,.01.01.02.02,0,0,.01.01.02.02,0,0,.01.01.02.02.1.1.22.15.36.16.18,0,.35-.04.48-.17.11-.11.16-.26.16-.41,0-.05-.01-.11-.03-.16.13.13.2.27.2.46,0,.05,0,.1-.01.15.09-.17.1-.35.04-.54ZM8.74,9.55s-.04,0-.06,0c-.04,0-.07-.02-.1-.05-.03-.03-.04-.07-.03-.11,0-.06.04-.08.08-.11.06,0,.1,0,.15.04.03.02.05.06.05.1,0,.06-.04.1-.08.14Z"
                style="fill:currentColor; stroke-width:0px;" />
        </svg>
        <svg id="man" xmlns="http://www.w3.org/2000/svg" viewBox="0 0 24 24" aria-hidden="true">
            <path
                d="M22.56,19.14c-.13-.09-.28-.15-.42-.23-1.46-.83-2.95-1.58-4.46-2.33-.1-.04-.15-.13-.22-.21-.48-.53-.97-1.04-1.47-1.55-.24-.24-.49-.47-.72-.72.02-.07.04-.13.06-.2.14-.65.29-1.3.35-1.97.2.03.42.08.58-.07.35-.32.45-.81.55-1.26.04-.28.15-.54.24-.81.08-.2-.01-.41-.04-.62-.03-.16-.1-.35-.27-.39-.17-.02-.34,0-.5.04.4-.82.71-1.7.83-2.61.09-.72,0-1.48-.3-2.15-.1-.22-.34-.41-.59-.35-.18.03-.32.15-.43.29.03-.1.07-.2.1-.3.06-.24.03-.49-.06-.72-.15-.37-.44-.65-.76-.87-.48-.32-1.01-.54-1.56-.72-.75-.23-1.52-.39-2.3-.49-.72-.08-1.46-.15-2.18,0-.4.07-.8.22-1.1.5-.08-.24-.11-.5-.05-.75.07-.26.23-.48.42-.67-.46.27-.84.67-1.14,1.1-.32.46-.55,1.02-.5,1.59.04.49.29.91.55,1.31-.21-.19-.39-.39-.57-.61-.32-.39-.51-.88-.49-1.38,0-.36.13-.71.29-1.03-.05.04-.08.09-.12.14-.25.38-.49.76-.7,1.16-.26.5-.47,1.05-.42,1.62.03.52.34.97.68,1.33-.08.39-.16.79-.17,1.19.02.54.23,1.05.39,1.55.08.27.17.54.18.82-.15,0-.31-.04-.44.05-.11.08-.15.22-.18.35-.04.17-.1.35-.08.52.02.14.08.27.12.41.1.3.13.61.21.91.08.3.2.62.44.83.16.15.4.09.6.07.03.36.1.71.17,1.06.07.38.16.76.25,1.14-.78.76-1.54,1.53-2.26,2.35-.05.06-.12.08-.19.12-.37.17-.74.34-1.11.52-1.12.54-2.24,1.09-3.32,1.72-.16.09-.33.17-.48.28.6-.13,1.19-.31,1.79-.44.74-.18,1.49-.34,2.24-.49-.3.44-.63.86-.93,1.29,1.05-.1,2.12-.18,3.18-.02.14.02.28.04.41.1-.02.09-.12.14-.2.18-.35.18-.75.28-1.14.33.49.41.97.84,1.49,1.21.99.72,2.08,1.31,3.23,1.76.39.16.78.31,1.18.43.68-.22,1.35-.49,2-.79.85-.39,1.66-.86,2.41-1.42.59-.43,1.14-.93,1.66-1.44.02.02.05.05.06,0,0-.03-.05-.04-.07-.05-.51,0-1.04-.02-1.52-.19-.02-.04.03-.05.06-.08.14-.12.3-.2.46-.26.51-.19,1.05-.22,1.59-.2.53,0,1.05.08,1.58.13-.26-.32-.5-.66-.76-.99.48.11.95.21,1.42.32.81.2,1.62.43,2.43.62ZM16.13,11.49c.11-.19.14-.4.2-.61.06-.25.15-.51.09-.77-.05-.23-.16-.44-.28-.65.13-.13.23-.29.39-.4-.05.13-.11.25-.12.39-.03.21.08.41.11.62.06.38-.05.76-.16,1.12-.07.23-.22.5-.49.5.1-.05.2-.11.26-.21ZM6.35,11.43c-.1-.2-.15-.41-.2-.63-.05-.22-.09-.45-.05-.68.02-.18.11-.35.13-.53.02-.17-.05-.35-.11-.5.14.11.26.24.37.38-.14.2-.24.44-.3.68-.06.27.04.54.1.8.05.19.08.39.19.56.06.1.16.16.27.19-.18,0-.34-.12-.42-.27ZM14.75,16.97c-.1.5-.19,1.01-.37,1.5-.44,1-.95,1.96-1.62,2.82-.43.57-.92,1.09-1.43,1.59-.39-.38-.78-.76-1.12-1.18-.73-.86-1.32-1.84-1.75-2.88-.12-.27-.22-.56-.28-.85-.22-1.08-.4-2.16-.54-3.25.68,1.02,1.37,2.03,2.03,3.07.29.46.58.92.87,1.37.2.3.38.62.64.89.14.14.34.26.54.19.26-.09.42-.33.57-.55.33-.53.59-1.09.89-1.63.6-1.11,1.24-2.2,1.89-3.28-.08.74-.18,1.47-.31,2.2ZM15.04,13.89c0,.13,0,.27-.05.39-.06.13-.16.23-.26.34-.59.67-1.16,1.35-1.74,2.02-.07.09-.18.16-.29.19-.34.12-.71.1-1.06.1-.37,0-.73,0-1.1,0-.26,0-.5-.07-.74-.16-.09-.04-.15-.12-.22-.2-.59-.68-1.16-1.37-1.75-2.05-.12-.14-.21-.32-.21-.51-.02-.63-.15-1.25-.32-1.86-.11-.39-.22-.77-.31-1.16-.04-.19-.11-.39-.1-.58,0-.26.09-.5.1-.75,0-.37,0-.75.04-1.12.02-.21.13-.39.16-.59.06-.39.05-.79.02-1.18-.02-.32-.09-.64-.05-.97.02-.15.13-.28.26-.35.23-.12.52-.12.76-.03.49.19,1,.31,1.52.39-.43.2-.8.51-1.08.89-.21.27-.35.58-.45.91.07-.07.12-.16.19-.23.39-.44.9-.76,1.46-.94.64-.22,1.33-.21,1.98-.39.52-.14,1-.39,1.45-.7.03-.03.07-.04.11-.03.45.04.91.08,1.37.03,0,.17,0,.38.14.5.16.13.37.09.56.11-.07.28-.11.58-.16.86-.04.29-.09.58-.09.87,0,.13.02.28.1.39.07.09.15.17.18.28.07.16.06.34.06.51,0,.3-.01.61.08.9.08.26.15.54.11.81-.11.66-.31,1.3-.47,1.96-.11.44-.17.89-.19,1.34Z"
                style="fill:currentColor; stroke-width:0px;" />
            <path
                d="M14.72,8.81c-.16-.21-.4-.39-.68-.42-.21-.02-.4.1-.59.17-.37.16-.75.3-1.14.4-.13.04-.27.07-.36.18-.14.14-.17.39-.05.56.12.18.33.28.54.28.21,0,.43,0,.65,0,.24-.02.48-.06.67-.21.07-.05.13-.13.2-.19.13-.03.26,0,.39,0-.06-.17-.19-.32-.37-.36-.19-.05-.39-.06-.58-.06.1-.05.2-.08.31-.11.34-.09.68-.16,1.02-.25Z"
                style="fill:currentColor; stroke-width:0px;" />
            <path
                d="M10.03,9.98c.25,0,.52-.02.71-.2.14-.12.15-.33.06-.47-.12-.2-.33-.3-.55-.35-.44-.11-.86-.27-1.28-.42-.11-.04-.22-.07-.34-.08-.16,0-.31.05-.45.13-.16.09-.31.21-.41.36.44.03.87.07,1.29.21-.27.06-.55.12-.78.29-.04.02-.02.09.02.1.12.05.25.03.37.03.09.09.17.21.3.26.33.17.7.14,1.05.14Z"
                style="fill:currentColor; stroke-width:0px;" />
            <path
                d="M10.83,13.34c.08.11.12.25.22.34.11.11.29.12.43.07.15-.07.28-.19.35-.34.14-.34.5-.53.66-.86.07-.17.04-.38-.07-.53-.04.14-.05.31-.18.4-.13.07-.28.09-.42.12-.17.03-.33.1-.5.12-.14.02-.28-.03-.41-.07-.24-.08-.48-.15-.72-.22.15.36.42.65.65.96Z"
                style="fill:currentColor; stroke-width:0px;" />
            <path
                d="M12.63,14.12c.07,0,.14,0,.21-.04-.33-.04-.64-.16-.97-.19-.22,0-.44.07-.65.02-.16-.03-.33-.05-.49-.01-.39.07-.77.16-1.15.27.36.02.73,0,1.09.04.2.02.39.05.59.06.28.02.56-.04.84-.06.36-.04.73-.02,1.09-.04-.11-.03-.22-.06-.33-.08-.06.06-.15.02-.22.02Z"
                style="fill:currentColor; stroke-width:0px;" />
            <path
                d="M10.34,14.84c.1.14.21.26.33.39.1.11.24.2.39.2.18,0,.35,0,.53,0,.12,0,.25-.04.34-.12.16-.14.29-.32.43-.47-.67,0-1.34,0-2.02,0Z"
                style="fill:currentColor; stroke-width:0px;" />
        </svg>
        <svg id="woman" xmlns="http://www.w3.org/2000/svg" viewBox="0 0 24 24" fill="currentColor" aria-hidden="true">
            <path d="M7.17,21.36c-.07.11-.14.25-.22.41.04-.06.14-.2.22-.41Z"
                style="fill:currentColor; stroke-width:0px;" />
            <path
                d="M14.41,17.99c.26.02.75.02,1.27-.23,1.02-.49,1.3-1.53,1.35-1.71-.09.23-.27.6-.65.85-.14.1-.3.2-.49.19-.45-.02-.69-.61-.7-.63.1.05.29.15.56.15.36,0,.61-.16.7-.23-.15.02-.44.05-.77-.07-.39-.14-.61-.41-.71-.54-.35-.45-.43-.95-.46-1.47-.07-1.06.05-1.89.12-2.31.21-1.49.33-2.3.33-3.19,0-1.13-.17-1.95-.38-2.94-.32-1.47-.51-2.38-1.2-3.37-.56-.8-1.17-1.26-1.35-1.4C10.9.27,9.74.08,9.15.02c-.94-.09-1.61.09-2.58.33-1.28.33-2.13.73-3.2,1.26-1.08.53-1.49.84-1.84,1.23,0,0,0,0,0,0,.06.18.14.39.27.61.02.03.04.06.06.09.29.46.66.76,1.09,1.05,1.03.7,1.98,1.08,2.2,1.16.87.33,2.07.74,3.57,1.08-.35-.01-.82-.04-1.38-.13-.01,0-.02,0-.04,0-.21-.03-.43-.07-.67-.13-1.13-.25-2.66-.58-3.99-1.79-.26-.25-.62-.61-.97-1.13-.12-.17-.23-.36-.35-.57-.27.35-.43.67-.53.86-.39.78-.49,1.43-.62,2.31-.15,1.08-.25,1.81-.03,2.73.1.43.24.77.52,1.43.12.28.22.5.81,1.69.78,1.57.85,1.67.94,2.04.12.47.11.66.31,1.3.04.14.18.58.43,1.13.35.77.52,1.16.9,1.55.29.3.57.48,1,.76.48.31.91.53.91.53.15.03.64.14.99.59.07.09.25.32.3.67.04.26,0,.49-.07.67.03-.05.06-.09.08-.13.08-.12.15-.21.2-.27.14-.17.25-.25.36-.41.35-.49.33-1.08.31-1.56,0-.19-.07-.49-.19-1.1-.15-.73-.23-1.1-.36-1.58-.09-.32-.23-.75-.42-1.24-.43.26-.81.43-1.09.54-.16.06-.58.22-1.13.29-.39.05-.55.01-.67-.07-.24-.17-.29-.48-.29-.49-.03-.17.04-.18.02-.36,0-.03-.04-.39-.31-.58-.13-.09-.18-.05-.31-.15-.06-.04-.22-.18-.2-.33.02-.21.37-.32.45-.35.04-.01.08-.02.44-.06.37-.03.43-.03.53-.08.13-.06.23-.16.3-.28-.23.11-.43.14-.56.15-.16,0-.51,0-.57,0-.11,0-.2,0-.31.03-.1.04-.12.08-.2.09-.13.01-.24-.08-.28-.11-.14-.13-.22-.34-.19-.53.02-.14.09-.14.1-.3,0-.04.02-.25-.1-.36-.07-.07-.13-.04-.3-.13-.15-.08-.25-.17-.27-.19-.07-.07-.17-.18-.2-.33,0-.04-.01-.13.15-.48.08-.18.12-.22.2-.4.13-.26.19-.39.22-.52.03-.11.09-.4-.01-.71-.01-.03-.06-.13-.17-.34-.15-.29-.2-.38-.22-.43-.12-.24-.15-.49-.15-.9-.01-.82.08-1.68.12-1.97.16.13.41.32.75.49.66.34,1.26.41,2.15.51.41.04.93.09,1.46.13.34.03.58.04.77.07.01,0,.03,0,.04,0,.2.03.35.08.51.17.22.12.59.33.73.7.01.03.08.21.2.43.1.18.16.25.25.3.11.07.22.07.29.07.23,0,.4-.1.48-.15.07.18.14.37.22.55,0-.17-.01-.32-.03-.45-.03-.22-.06-.3-.03-.43.01-.04.07-.3.26-.33.16-.03.3.16.35.22.38.48.11,1.32-.12,2.99-.02.16-.08.58-.13,1.11-.07.76-.12,1.26-.11,1.88.01.65.02,1.22.23,1.94.12.39.27.92.68,1.47.5.68,1.09,1.01,1.5,1.24.83.46,1.58.61,1.97.66.74.1,1.36.03,1.78-.04-.35.03-.8.03-1.33-.05-.48-.08-.87-.21-1.18-.33.46-.03.86-.07,1.19-.1.73-.07,1-.13,1.27-.3.23-.14.38-.3.47-.41-.21.1-.56.23-1,.24-.64.02-1.13-.2-1.34-.32ZM12.23,12.31c.21-.54.59-1.74.32-3.22-.25-1.35-.9-2.24-1.29-2.75-.91-1.2-2-1.86-2.69-2.2.37.3.86.75,1.37,1.35.46.54.9,1.06,1.23,1.82.2.47.49,1.31.44,2.47-.06-.58-.22-1.47-.71-2.43-.48-.94-1.04-1.49-1.62-2.08-.41-.41-1.47-1.41-3.14-2.23-.56-.28-1.04-.46-1.39-.58.64.14,1.46.36,2.37.71.6.23,1.12.48,1.55.71.48.25.84.48,1.06.61.9.57,1.52.97,2.15,1.73.31.38.89,1.07,1.16,2.03.52,1.91-.53,3.61-.8,4.04ZM13.78,9.14c-.09.68-.25,1.62-.59,2.72.26-1.03.36-1.89.39-2.52.04-.76.07-1.35-.12-2.1-.17-.68-.46-1.19-.67-1.52.26.21.62.58.87,1.12.15.34.3.86.12,2.29Z"
                style="fill:currentColor; stroke-width:0px;" />
            <path
                d="M4.51,7.02c-.11.01-.51.06-.95.29-.35.18-.48.33-.54.43-.09.15-.13.29-.14.39.01.03.06.12.15.16.13.06.26-.01.31-.03.14-.07.18-.18.31-.35,0,0,.1-.14.34-.35.3-.27.69-.33,1-.38.5-.07.93,0,1.21.09-.36-.15-.96-.33-1.68-.25Z"
                style="fill:currentColor; stroke-width:0px;" />
            <path
                d="M4,9.01c-.18.09-.32.18-.42.24.14.05.36.1.63.1.09,0,.26-.01.46-.07.3-.09.5-.24.77-.45.17-.14.4-.33.65-.6-.45.16-.87.31-1.3.46-.22.08-.47.17-.79.33Z"
                style="fill:currentColor; stroke-width:0px;" />
        </svg>
        <svg id="history" xmlns="http://www.w3.org/2000/svg" viewBox="0 0 24 24" fill="currentColor" aria-hidden="true">
            <path
                d="M20.49,3.51C18.22,1.25,15.21,0,12,0c-3.75,0-7.23,1.75-9.47,4.63l-.16-1.65c-.05-.52-.51-.89-1.03-.84-.52.05-.89.51-.84,1.03l.44,4.45s0,0,0,0h0s0,.01,0,.01c0,.01,0,.02,0,.03,0,.02,0,.03,0,.05,0,0,0,0,0,0,0,0,0,.02,0,.03,0,.02,0,.03.01.05,0,0,0,.01,0,.02,0,0,0,0,0,0,0,.01,0,.02.01.03,0,0,0,.02,0,.03,0,0,0,0,0,.01,0,.02.02.04.02.05,0,0,0,.01,0,.01,0,0,0,0,0,0,0,0,0,0,0,.01.01.02.02.04.03.06,0,0,0,0,0,0,0,0,0,0,0,.01.01.02.02.03.04.05,0,0,.01.01.02.02.01.01.02.03.04.04,0,0,0,0,0,0,0,0,0,0,0,0,0,0,.01.01.02.02.01.01.02.02.04.04,0,0,0,0,.01,0,0,0,0,0,.01.01.01.01.03.02.04.03,0,0,0,0,.01.01,0,0,0,0,.01,0,0,0,.01,0,.02.01,0,0,.02.01.03.02,0,0,0,0,0,0,0,0,.01,0,.02,0,0,0,.02,0,.03.01,0,0,.02.01.03.02,0,0,.01,0,.02,0,0,0,0,0,.01,0,0,0,0,0,.01,0,0,0,0,0,0,0,0,0,.01,0,.02,0,0,0,.02,0,.03.01.01,0,.02,0,.03.01,0,0,0,0,0,0,0,0,0,0,.01,0,0,0,.02,0,.03,0,.01,0,.02,0,.04,0,0,0,.01,0,.02,0,0,0,.01,0,.02,0,.01,0,.03,0,.04,0,0,0,.02,0,.03,0,0,0,0,0,0,0,.02,0,.04,0,.06,0,0,0,.01,0,.02,0,0,0,0,0,0,0,.03,0,.05,0,.08,0,0,0,0,0,0,0,0,0,0,0,0,0,0,0,0,0,0,0,0,0,0,0,0,0,.02,0,.04,0,.06,0,0,0,.01,0,.02,0,0,0,.01,0,.02,0,.01,0,.03,0,.04-.01,0,0,.02,0,.02,0,0,0,0,0,0,0,0,0,0,0,.01,0,0,0,0,0,0,0l4.28-1.36c.5-.16.77-.69.61-1.18-.16-.5-.69-.77-1.18-.61l-1.95.62C5.81,3.41,8.78,1.88,12,1.88c2.7,0,5.24,1.05,7.15,2.96,1.91,1.91,2.96,4.45,2.96,7.15s-1.05,5.24-2.96,7.15c-1.91,1.91-4.45,2.96-7.15,2.96s-5.24-1.05-7.15-2.96c-1.91-1.91-2.96-4.45-2.96-7.15,0-.52-.42-.94-.94-.94s-.94.42-.94.94c0,3.21,1.25,6.22,3.51,8.49,2.27,2.27,5.28,3.51,8.49,3.51s6.22-1.25,8.49-3.51,3.51-5.28,3.51-8.49-1.25-6.22-3.51-8.49Z"
                style="fill:currentColor; stroke-width:0px;" />
            <path
                d="M12,4.37c-.52,0-.94.42-.94.94v5.99l-4.56,1.41c-.5.15-.77.68-.62,1.18.12.4.5.66.9.66.09,0,.19-.01.28-.04l5.22-1.61c.06-.02.12-.04.18-.07.02,0,.03-.02.05-.03.01,0,.02-.01.03-.02.02-.01.04-.03.05-.04,0,0,.01,0,.02-.01.02-.01.03-.03.05-.04,0,0,.01-.01.02-.02.01-.01.03-.03.04-.04,0,0,.02-.02.02-.03,0-.01.02-.02.03-.04,0-.01.02-.02.03-.04,0,0,.01-.02.02-.03,0-.02.02-.03.03-.05,0,0,0-.02.01-.02,0-.02.02-.04.03-.06,0,0,0-.01,0-.02,0-.02.02-.04.02-.06,0-.01,0-.02,0-.04,0-.02,0-.03.01-.05.01-.06.02-.13.02-.19v-6.69c0-.52-.42-.94-.94-.94Z"
                style="fill:currentColor; stroke-width:0px;" />
        </svg>
        <svg id="survey" xmlns="http://www.w3.org/2000/svg" viewBox="0 0 24 24" aria-hidden="true">
            <path
                d="M16.2,9.98v-4.44c0-.69-.56-1.24-1.24-1.24H1.24c-.69,0-1.24.56-1.24,1.24v4.44c0,.69.56,1.24,1.24,1.24h13.71c.69,0,1.24-.56,1.24-1.24Z"
                style="fill:currentColor; stroke-width:0px;" />
            <polygon
                points="16.19 13.26 15.88 13.58 15.33 14.13 13.01 16.45 11.92 15.36 11.1 16.18 13.01 18.08 15.39 15.7 16.17 14.92 17.01 14.08 16.19 13.26"
                style="fill:currentColor; stroke-width:0px;" />
            <path
                d="M15.54,0H6.34c-.37,0-.74.07-1.08.22-.33.14-.62.34-.88.59-.25.25-.45.55-.59.88-.14.34-.22.7-.22,1.08v.88h1.3v-.88c0-.81.66-1.46,1.46-1.46h8.66l5.87,5.87v13.14c0,.81-.66,1.46-1.46,1.46H6.34c-.81,0-1.46-.66-1.46-1.46v-8.44h-1.3v8.44c0,.37.07.74.22,1.08.14.33.34.62.59.88.25.25.55.45.88.59.34.14.7.22,1.08.22h13.07c.37,0,.74-.07,1.08-.22.33-.14.62-.34.88-.59.25-.25.45-.55.59-.88.14-.34.22-.7.22-1.08V6.63L15.54,0Z"
                style="fill:currentColor; stroke-width:0px;" />
            <path
                d="M1.72,8.29c.03.22.14.36.37.36s.31-.11.31-.26c0-.19-.12-.29-.48-.41-.62-.2-.81-.44-.81-.82,0-.52.4-.81.95-.81.66,0,.96.34.98.81h-.67c-.02-.17-.09-.32-.31-.32-.17,0-.26.09-.26.23,0,.16.11.22.45.34.65.21.86.47.86.89,0,.49-.35.84-1.03.84s-1-.34-1.03-.86h.68Z"
                style="fill:#fff; stroke-width:0px;" />
            <path
                d="M4.13,6.41v1.78c0,.22.06.44.35.44s.34-.2.34-.44v-1.78h.71v1.76c0,.6-.3.99-1.06.99s-1.04-.38-1.04-.99v-1.76h.7Z"
                style="fill:#fff; stroke-width:0px;" />
            <path
                d="M6.7,8.05v1.06h-.69v-2.7h1.14c.57,0,.88.3.88.74,0,.37-.18.54-.4.63.26.1.35.32.35.65v.09c0,.25,0,.46.03.59h-.68c-.04-.11-.05-.3-.05-.6v-.08c0-.29-.09-.38-.36-.38h-.23ZM6.7,7.54h.27c.23,0,.37-.08.37-.32,0-.22-.13-.3-.32-.3h-.32v.62Z"
                style="fill:#fff; stroke-width:0px;" />
            <path
                d="M8.96,9.1l-.76-2.7h.74c.02.08.25,1.04.26,1.11.08.35.15.66.19.95h.01c.05-.29.12-.61.2-.94.02-.08.26-1.05.27-1.13h.72l-.8,2.7h-.85Z"
                style="fill:#fff; stroke-width:0px;" />
            <path d="M12.57,7.98h-1.05v.58h1.17l-.08.54h-1.77v-2.7h1.77v.54h-1.09v.49h1.05v.54Z"
                style="fill:#fff; stroke-width:0px;" />
            <path
                d="M13.62,9.1v-.94s0-.07-.02-.11l-.79-1.64h.79c.14.39.31.84.41,1.13.13-.36.29-.78.41-1.13h.73l-.8,1.64s-.02.06-.02.1v.95h-.71Z"
                style="fill:#fff; stroke-width:0px;" />
            <path
                d="M15.39,18.66c0,.2-.16.36-.36.36h-4.32c-.2,0-.36-.16-.36-.36v-4.32c0-.2.16-.36.36-.36h3.85l.75-.75c-.09-.02-.18-.03-.27-.03h-4.32c-.63,0-1.14.51-1.14,1.14v4.32c0,.63.51,1.14,1.14,1.14h4.32c.63,0,1.14-.51,1.14-1.14v-2.82l-.78.78v2.04Z"
                style="fill:currentColor; stroke-width:0px;" />
        </svg>
        <svg id="study" xmlns="http://www.w3.org/2000/svg" viewBox="0 0 24 24" aria-hidden="true">
            <path
                d="M13.47,4.31v5.71l-4.7,4.7s.05-.08.05-.13v-.56c0-.12-.1-.21-.21-.21h-2.63c-.12,0-.21.1-.21.21v.56c0,.12.1.21.21.21h2.63c.05,0,.1-.02.13-.05l-.37.37c-.44.44-.75.97-.92,1.53H2.33c-.66,0-1.21-.54-1.21-1.21V4.31c0-.29.23-.52.52-.52h11.31c.29,0,.52.23.52.52h0ZM7.29,6.34c.8,0,1.52.32,2.05.85.52.52.85,1.25.85,2.05s-.32,1.52-.85,2.05c-.52.52-1.25.85-2.05.85s-1.52-.32-2.05-.85c-.52-.52-.85-1.25-.85-2.05s.32-1.52.85-2.05c.52-.52,1.25-.85,2.05-.85h0ZM6.95,7.52h.68c.05,0,.09.04.09.09v1.19h1.19c.05,0,.09.04.09.09v.68c0,.05-.04.09-.09.09h-1.19v1.19c0,.05-.04.09-.09.09h-.68c-.05,0-.09-.04-.09-.09v-1.19h-1.19c-.05,0-.09-.04-.09-.09v-.68c0-.05.04-.09.09-.09h1.19v-1.19c0-.05.04-.09.09-.09h0Z"
                style="fill:currentColor; fill-rule:evenodd; stroke-width:0px;" />
            <path
                d="M.54,0h13.51c.3,0,.54.24.54.54v2.22c0,.3-.24.54-.54.54H.54c-.3,0-.54-.24-.54-.54V.54C0,.24.24,0,.54,0h0ZM1.6.73c.19,0,.35.15.35.33v1.17c0,.18-.16.33-.35.33s-.35-.15-.35-.33v-1.17c0-.18.16-.33.35-.33h0ZM12.98.73c.19,0,.35.15.35.33v1.17c0,.18-.16.33-.35.33s-.35-.15-.35-.33v-1.17c0-.18.16-.33.35-.33h0ZM10.71.73c.19,0,.35.15.35.33v1.17c0,.18-.16.33-.35.33s-.35-.15-.35-.33v-1.17c0-.18.16-.33.35-.33h0ZM8.43.73c.19,0,.35.15.35.33v1.17c0,.18-.16.33-.35.33s-.35-.15-.35-.33v-1.17c0-.18.16-.33.35-.33h0ZM6.16.73c.19,0,.35.15.35.33v1.17c0,.18-.16.33-.35.33s-.35-.15-.35-.33v-1.17c0-.18.16-.33.35-.33h0ZM3.88.73c.19,0,.35.15.35.33v1.17c0,.18-.16.33-.35.33s-.35-.15-.35-.33v-1.17c0-.18.16-.33.35-.33h0Z"
                style="fill:currentColor; fill-rule:evenodd; stroke-width:0px;" />
            <path
                d="M14.66,10.02c1.13-1.13,3-1.1,4.16.06,1.16,1.16,1.19,3.04.06,4.16l-2.51,2.51c-.08.08-.22.08-.31,0l-3.92-3.92c-.08-.08-.08-.22,0-.31l2.51-2.51h0Z"
                style="fill:currentColor; fill-rule:evenodd; stroke-width:0px;" />
            <path
                d="M11.78,13.21l3.92,3.92c.08.08.08.22,0,.31l-2.51,2.51c-1.13,1.13-3,1.1-4.17-.06-1.16-1.16-1.19-3.04-.06-4.16l2.51-2.51c.08-.08.22-.08.31,0h0Z"
                style="fill:currentColor; fill-rule:evenodd; stroke-width:0px;" />
        </svg>     
        <svg id="check-in" xmlns="http://www.w3.org/2000/svg" viewBox="0 0 24 24" aria-hidden="true">
            <circle cx="9.54" cy="6.73" r="2.48" style="fill:currentColor; stroke-width:0px;" />
            <path
                d="M13.02,14.83h-6.95c-.85,0-1.53-.69-1.53-1.53v-.44c0-1.65,1.34-2.99,2.99-2.99h4.03c1.65,0,2.99,1.34,2.99,2.99v.44c0,.85-.69,1.53-1.53,1.53Z"
                style="fill:currentColor; stroke-width:0px;" />
            <polygon
                points="20.77 8.73 18.91 8.73 18.91 6.87 17.95 6.87 17.95 8.73 16.09 8.73 16.09 9.68 17.95 9.68 17.95 11.54 18.91 11.54 18.91 9.68 20.77 9.68 20.77 8.73"
                style="fill:currentColor; stroke-width:0px;" />
            <path
                d="M18.43,5.06c-.15,0-.3,0-.45.03-.77-1.45-1.9-2.68-3.28-3.57-1.54-.99-3.32-1.51-5.15-1.51C4.28,0,0,4.28,0,9.54s4.28,9.54,9.54,9.54c1.95,0,3.83-.58,5.42-1.69,1.47-1.02,2.61-2.41,3.32-4.04.05,0,.09,0,.14,0,2.29,0,4.15-1.86,4.15-4.15s-1.86-4.15-4.15-4.15ZM9.54,18.13C4.81,18.13.95,14.27.95,9.54S4.81.95,9.54.95c3.09,0,5.96,1.69,7.47,4.35-1.59.58-2.73,2.11-2.73,3.9,0,1.9,1.28,3.5,3.03,3.99-1.41,3.01-4.41,4.93-7.77,4.93ZM18.43,12.4c-1.76,0-3.2-1.43-3.2-3.2s1.43-3.2,3.2-3.2,3.2,1.43,3.2,3.2-1.43,3.2-3.2,3.2Z"
                style="fill:currentColor; stroke-width:0px;" />
        </svg>
        <svg id="check-out" xmlns="http://www.w3.org/2000/svg" viewBox="0 0 24 24" aria-hidden="true">
            <circle cx="9.55" cy="6.73" r="2.48" style="fill:currentColor; stroke-width:0px;" />
            <path
                d="M13.03,14.84h-6.96c-.85,0-1.53-.69-1.53-1.53v-.44c0-1.65,1.34-3,3-3h4.03c1.65,0,3,1.34,3,3v.44c0,.85-.69,1.53-1.53,1.53Z"
                style="fill:currentColor; stroke-width:0px;" />
            <polygon
                points="20.43 7.9 19.76 7.22 18.44 8.54 17.12 7.22 16.45 7.9 17.77 9.21 16.45 10.53 17.12 11.2 18.44 9.89 19.76 11.2 20.43 10.53 19.12 9.21 20.43 7.9"
                style="fill:currentColor; stroke-width:0px;" />
            <path
                d="M18.44,5.06c-.15,0-.3,0-.45.03-.77-1.45-1.9-2.68-3.28-3.57-1.54-.99-3.32-1.51-5.16-1.51C4.28,0,0,4.28,0,9.55s4.28,9.55,9.55,9.55c1.95,0,3.83-.59,5.43-1.69,1.47-1.02,2.62-2.41,3.33-4.04.05,0,.09,0,.14,0,2.29,0,4.15-1.86,4.15-4.15s-1.86-4.15-4.15-4.15ZM9.55,18.14C4.81,18.14.95,14.28.95,9.55S4.81.95,9.55.95c3.09,0,5.96,1.69,7.48,4.35-1.59.58-2.73,2.11-2.73,3.9,0,1.9,1.28,3.51,3.03,4-1.41,3.01-4.41,4.93-7.77,4.93ZM18.44,12.41c-1.76,0-3.2-1.43-3.2-3.2s1.43-3.2,3.2-3.2,3.2,1.43,3.2,3.2-1.43,3.2-3.2,3.2Z"
                style="fill:currentColor; stroke-width:0px;" />
        </svg>     
        <svg id="clinic-in" xmlns="http://www.w3.org/2000/svg" viewBox="0 0 24 24" aria-hidden="true">
            <circle cx="9.42" cy="6.64" r="2.45" style="fill:currentColor; stroke-width:0px;" />
            <path
                d="M12.85,14.64h-6.86c-.84,0-1.51-.68-1.51-1.51v-.43c0-1.63,1.32-2.95,2.95-2.95h3.98c1.63,0,2.95,1.32,2.95,2.95v.43c0,.84-.68,1.51-1.51,1.51Z"
                style="fill:currentColor; stroke-width:0px;" />
            <path
                d="M18.19,4.99c-.15,0-.3,0-.45.02-.76-1.43-1.87-2.64-3.24-3.52-1.52-.98-3.28-1.49-5.09-1.49C4.22,0,0,4.22,0,9.42s4.22,9.42,9.42,9.42c1.93,0,3.78-.58,5.35-1.67,1.45-1,2.58-2.38,3.28-3.98.05,0,.09,0,.14,0,2.26,0,4.1-1.84,4.1-4.1s-1.84-4.1-4.1-4.1ZM9.42,17.89C4.74,17.89.94,14.09.94,9.42S4.74.94,9.42.94c3.05,0,5.88,1.67,7.37,4.3-1.57.57-2.7,2.08-2.7,3.85,0,1.88,1.27,3.46,2.99,3.94-1.4,2.97-4.35,4.86-7.67,4.86ZM18.19,12.24c-1.74,0-3.15-1.41-3.15-3.15s1.41-3.15,3.15-3.15,3.15,1.41,3.15,3.15-1.41,3.15-3.15,3.15Z"
                style="fill:currentColor; stroke-width:0px;" />
            <polygon points="17.43 11.12 15.77 9.47 16.44 8.8 17.43 9.79 19.73 7.49 20.39 8.16 17.43 11.12"
                style="fill:currentColor; stroke-width:0px;" />
        </svg>      
        <svg id="clinic-esource" xmlns="http://www.w3.org/2000/svg" viewBox="0 0 24 24" aria-hidden="true">
            <g id="b">
                <path
                    d="M11.1.5c2.93,0,5.57,1.19,7.49,3.1,1.92,1.92,3.1,4.57,3.1,7.49s-1.19,5.57-3.1,7.49c-1.92,1.92-4.57,3.1-7.49,3.1s-5.57-1.19-7.49-3.1c-1.92-1.92-3.1-4.57-3.1-7.49S1.69,5.52,3.6,3.6c1.92-1.92,4.57-3.1,7.49-3.1h0ZM18.25,3.94c-1.83-1.83-4.36-2.97-7.16-2.97s-5.33,1.13-7.16,2.97S.97,8.3.97,11.1s1.13,5.33,2.96,7.16c1.83,1.83,4.36,2.96,7.16,2.96s5.33-1.13,7.16-2.96c1.83-1.83,2.96-4.36,2.96-7.16s-1.13-5.33-2.96-7.16h0Z"
                    style="fill:none; stroke:#231f20; stroke-miterlimit:10;" />
                <g id="c">
                    <path id="d"
                        d="M8.73,13.17v.81h.64c.08,0,.15.07.15.15v.64h.81v-.64c0-.08.07-.15.15-.15h.64v-.81h-.64c-.09,0-.15-.07-.15-.15v-.64h-.81v.64c0,.08-.07.15-.15.15h-.64Z"
                        style="fill:currentColor; fill-rule:evenodd; stroke-width:0px;" />
                    <path id="e"
                        d="M11.43,13.01v1.12c0,.08-.07.15-.15.15h-.64v.64c0,.08-.07.15-.15.15h-1.12c-.08,0-.15-.07-.15-.15v-.64h-.64c-.08,0-.15-.07-.15-.15v-1.12c0-.09.07-.15.15-.15h.64v-.64c0-.08.07-.15.15-.15h1.12c.08,0,.15.07.15.15v.64h.64c.09,0,.15.07.15.15h0ZM9.92,10.99c-1.43,0-2.59,1.16-2.59,2.59s1.16,2.59,2.59,2.59,2.59-1.16,2.59-2.59c0-1.43-1.16-2.59-2.59-2.59h0Z"
                        style="fill:currentColor; fill-rule:evenodd; stroke-width:0px;" />
                    <path id="f"
                        d="M9.92,10.68c1.6,0,2.9,1.3,2.9,2.9s-1.3,2.9-2.9,2.9-2.9-1.3-2.9-2.9,1.3-2.9,2.9-2.9h0ZM11.77,9.64h-6.45v7.2c0,.37.31.67.69.67h8.51V7.7h-1.19c-.35,0-.51.26-.74.67-.04.07-.08.15-.12.22l-.57.97s-.08.08-.13.08h0Z"
                        style="fill:currentColor; fill-rule:evenodd; stroke-width:0px;" />
                    <path id="g" d="M14.83,7.7v9.81h1.35c.38,0,.69-.3.69-.67v-8.32c0-.45-.38-.82-.84-.82h-1.19Z"
                        style="fill:currentColor; fill-rule:evenodd; stroke-width:0px;" />
                    <polygon id="h" points="14.05 6.25 14.05 7.39 14.68 7.39 15.27 7.39 15.27 6.25 14.05 6.25"
                        style="fill:currentColor; fill-rule:evenodd; stroke-width:0px;" />
                    <path id="i"
                        d="M13.04,6.67h-5.48c-.09,0-.15-.07-.15-.15s.07-.15.15-.15h5.48c.08,0,.15.07.15.15,0,.08-.07.15-.15.15h0ZM6.85,4.69v4.65h4.83l.52-.89c.04-.07.08-.14.12-.21.22-.41.45-.83,1.01-.83h.41v-1.3h0v-1.41h-6.89ZM11.92,7.5c0,.08-.07.15-.15.15h-4.21c-.09,0-.15-.07-.15-.15s.07-.15.15-.15h4.21c.09,0,.15.07.15.15h0ZM7.56,8.32h3.42c.08,0,.15.07.15.15s-.07.15-.15.15h-3.42c-.09,0-.15-.07-.15-.15s.07-.15.15-.15h0ZM13.04,5.7h-5.48c-.09,0-.15-.07-.15-.15s.07-.15.15-.15h5.48c.08,0,.15.07.15.15,0,.08-.07.15-.15.15h0Z"
                        style="fill:currentColor; fill-rule:evenodd; stroke-width:0px;" />
                    <polygon id="j" points="5.32 6.25 5.32 9.33 6.54 9.33 6.54 6.25 5.32 6.25"
                        style="fill:currentColor; fill-rule:evenodd; stroke-width:0px;" />
                </g>
            </g>
        </svg>            
        <svg id="visit-schedule" xmlns="http://www.w3.org/2000/svg" viewBox="0 0 24 24" aria-hidden="true">
            <path
                d="M17.94,0H5.72C2.56,0,0,2.56,0,5.72v12.22c0,3.16,2.56,5.72,5.72,5.72h12.22c3.16,0,5.72-2.56,5.72-5.72V5.72c0-3.16-2.56-5.72-5.72-5.72ZM15.66,1.8c0-.33.26-.59.59-.59s.59.26.59.59v2.93c0,.33-.26.59-.59.59s-.59-.26-.59-.59V1.8ZM6.81,1.8c0-.33.26-.59.59-.59s.59.26.59.59v2.93c0,.33-.26.59-.59.59s-.59-.26-.59-.59V1.8ZM20.97,17.18c0,2.08-1.69,3.77-3.77,3.77H6.46c-2.08,0-3.77-1.69-3.77-3.77v-8.58h18.28v8.58ZM20.97,7.42H2.69v-.98c0-2,1.57-3.64,3.53-3.76v2.05c0,.65.53,1.18,1.18,1.18s1.18-.53,1.18-1.18v-2.05h6.49v2.05c0,.65.53,1.18,1.18,1.18s1.18-.53,1.18-1.18v-2.05c1.97.12,3.53,1.76,3.53,3.76v.98h0Z"
                style="fill:#fff9ef; stroke-width:0px;" />
            <path
                d="M17.43,2.68v2.05c0,.65-.53,1.18-1.18,1.18s-1.18-.53-1.18-1.18v-2.05h-6.49v2.05c0,.65-.53,1.18-1.18,1.18s-1.18-.53-1.18-1.18v-2.05c-1.97.12-3.53,1.76-3.53,3.76v.98h18.28v-.98c0-2-1.56-3.64-3.53-3.76h0Z"
                style="fill:currentColor; stroke-width:0px;" />
            <path
                d="M2.69,17.18c0,2.08,1.69,3.77,3.77,3.77h10.74c2.08,0,3.77-1.69,3.77-3.77v-8.58H2.69v8.58ZM11.83,10.11c2.57,0,4.67,2.09,4.67,4.67s-2.09,4.67-4.67,4.67-4.67-2.09-4.67-4.67,2.09-4.67,4.67-4.67Z"
                style="fill:currentColor; stroke-width:0px;" />
            <path d="M7.4,5.32c.33,0,.59-.26.59-.59V1.8c0-.33-.26-.59-.59-.59s-.59.26-.59.59v2.93c0,.33.26.59.59.59Z"
                style="fill:currentColor; stroke-width:0px;" />
            <path d="M16.25,5.32c.33,0,.59-.26.59-.59V1.8c0-.33-.26-.59-.59-.59s-.59.26-.59.59v2.93c0,.33.26.59.59.59Z"
                style="fill:currentColor; stroke-width:0px;" />
            <circle cx="11.86" cy="14.79" r="4.66" style="fill:#fff9ef; stroke-width:0px;" />
            <path
                d="M9.48,12.1l-.28.45s-1.04,1.43,1.19,3.68h0s0,.02,0,.02h0c2.25,2.24,3.68,1.19,3.68,1.19l.45-.28c.26-.19.29-.57.06-.8l-.54-.54c-.19-.19-.48-.21-.69-.05l-.57.37s-.38.23-1.46-.84c-1.07-1.08-.84-1.46-.84-1.46l.37-.57c.16-.21.14-.51-.05-.69l-.54-.54c-.23-.23-.61-.2-.8.06h0Z"
                style="fill:#bbb; stroke-width:0px;" />
        </svg>        
        <svg id="visit-unconfirmed" xmlns="http://www.w3.org/2000/svg" viewBox="0 0 24 24" aria-hidden="true">
            <rect width="24" height="24" rx="5.8" ry="5.8" style="fill:currentColor; stroke-width:0px;" />
            <circle cx="12" cy="12" r="10.05" style="fill:#fff; stroke-width:0px;" />
            <polygon
                points="13.41 16.58 13.41 9.81 9.58 9.81 9.58 11.8 10.62 11.8 10.62 16.58 9.58 16.58 9.58 18.63 14.42 18.63 14.42 16.58 13.41 16.58"
                style="fill:currentColor; stroke-width:0px;" />
            <circle cx="11.79" cy="7.15" r="1.79" style="fill:currentColor; stroke-width:0px;" />
        </svg>          
        <svg id="visit-confirmed" xmlns="http://www.w3.org/2000/svg" viewBox="0 0 24 24" aria-hidden="true">
            <rect width="24" height="24" rx="5.8" ry="5.8" style="fill:currentColor; stroke-width:0px;" />
            <circle cx="12" cy="12" r="10.13" style="fill:#fff; stroke-width:0px;" />
            <path
                d="M10.04,17.91c-.41,0-.79-.2-1.03-.54l-2.57-3.68c-.4-.57-.26-1.35.31-1.75.57-.4,1.35-.26,1.75.31l1.54,2.21,5.46-7.83c.4-.57,1.18-.71,1.75-.31.57.4.71,1.18.31,1.75l-6.49,9.3c-.24.34-.62.54-1.03.54h0Z"
                style="fill:currentColor; stroke-width:0px;" />
        </svg>        
        <svg id="visit-reschedule" xmlns="http://www.w3.org/2000/svg" viewBox="0 0 24 24" aria-hidden="true">
            <rect width="24" height="24" rx="5.8" ry="5.8" style="fill:currentColor; stroke-width:0px;" />
            <path
                d="M20.76,6.33c-.13-.14-.27-.28-.41-.41-.96-.87-2.24-1.4-3.64-1.4-1.62,0-3.16.73-4.19,1.97.14.11.27.22.4.34,1.27,1.14,2.14,2.63,2.5,4.27.13.57.19,1.16.19,1.75s-.07,1.23-.21,1.83c0,.02,0,.05-.02.07-.04.16-.08.32-.13.47.28.08.56.13.85.16.19.02.39.03.59.03.88,0,1.71-.21,2.45-.59,1.77-.9,2.99-2.74,2.99-4.86,0-1.4-.53-2.67-1.4-3.64h0ZM19.24,12.32h-1.76c-.3,0-.54-.24-.54-.54s.24-.54.54-.54h1.76c.3,0,.54.24.54.54s-.24.54-.54.54ZM19.24,10.5h-2.3c-.3,0-.54-.24-.54-.54s.24-.54.54-.54h2.3c.3,0,.54.24.54.54s-.24.54-.54.54ZM19.24,8.69h-2.97c-.3,0-.54-.24-.54-.54s.24-.54.54-.54h2.97c.3,0,.54.24.54.54s-.24.54-.54.54Z"
                style="fill:#fff; stroke-width:0px;" />
            <path
                d="M14.67,19.39l-.9-3.69.04-.1c.03-.05.05-.11.07-.17.13-.32.24-.65.32-.98.07-.28.11-.56.15-.85.03-.25.04-.51.04-.76,0-1.63-.59-3.21-1.65-4.44-.2-.23-.41-.45-.64-.66-.04-.04-.08-.08-.13-.11-.22-.19-.45-.36-.69-.52-1.11-.72-2.4-1.11-3.72-1.11-.26,0-.51.01-.76.04-3.42.38-6.08,3.28-6.08,6.79,0,1.63.57,3.13,1.53,4.3.3.37.63.71,1,1,1.17.96,2.66,1.53,4.28,1.53h6.91c.07,0,.14-.03.18-.09.05-.05.06-.13.05-.2h0ZM7.94,17.34s-.05.05-.08.07c-.03.02-.06.03-.1.05-.03.01-.06.02-.1.03-.04,0-.07,0-.11,0-.04,0-.07,0-.11,0-.03,0-.07-.02-.1-.03-.03-.02-.06-.03-.1-.05-.03-.02-.06-.04-.08-.07-.1-.1-.16-.24-.16-.38s.06-.28.16-.38c.02-.03.05-.05.08-.07.03-.02.06-.03.1-.05.03-.02.06-.03.1-.03.07-.01.14-.01.21,0,.03,0,.07.02.1.03.03.01.06.03.1.05.03.02.06.04.08.07.1.1.16.24.16.38s-.06.28-.16.38ZM8.39,14.05c-.18.06-.29.21-.29.38v.95c0,.3-.24.54-.54.54s-.54-.24-.54-.54v-.95c0-.64.42-1.21,1.05-1.41.73-.23,1.21-.92,1.17-1.68-.04-.86-.74-1.56-1.6-1.6-.47-.02-.91.14-1.24.46-.34.32-.52.75-.52,1.22,0,.3-.24.54-.54.54s-.54-.24-.54-.54c0-.76.31-1.47.85-2,.55-.53,1.28-.8,2.04-.76,1.41.06,2.56,1.22,2.63,2.63.05,1.25-.74,2.39-1.93,2.76h0Z"
                style="fill:#fff; stroke-width:0px;" />
        </svg>
        <svg id="visit-absent" xmlns="http://www.w3.org/2000/svg" viewBox="0 0 24 24" aria-hidden="true">
            <path d="M20.62,19.56c-.07.11-.17.2-.25.3.08-.1.18-.19.25-.3Z" style="fill:none; stroke-width:0px;" />
            <path
                d="M12,19.72c2.61,0,4.73-2.13,4.73-4.73s-2.12-4.73-4.73-4.73-4.73,2.13-4.73,4.73,2.13,4.73,4.73,4.73ZM12.04,18.33c-.32,0-.58-.26-.58-.58s.26-.58.58-.58.58.26.58.58-.26.58-.58.58ZM12,12.04c.4,0,.72.34.7.74l-.33,3.75c-.01.17-.15.29-.32.29h0c-.16,0-.3-.12-.32-.28l-.43-3.75c-.02-.4.3-.74.7-.74Z"
                style="fill:none; stroke-width:0px;" />
            <path d="M19.58,20.59s-.02.01-.03.02c0,0,.02-.01.03-.02Z" style="fill:none; stroke-width:0px;" />
            <path d="M20.15,20.13c-.06.06-.13.11-.2.16.06-.06.14-.1.2-.16Z" style="fill:none; stroke-width:0px;" />
            <path
                d="M16.49,5.39s0,0,0,0c-.33,0-.6-.27-.6-.6V1.82c0-.33.27-.6.6-.6,0,0,0,0,0,0-.33,0-.6.27-.6.6v2.97c0,.33.27.6.6.6Z"
                style="fill:none; stroke-width:0px;" />
            <path
                d="M7.51,5.39s0,0,0,0c-.33,0-.6-.27-.6-.6V1.82c0-.33.27-.6.6-.6,0,0,0,0,0,0-.33,0-.6.27-.6.6v2.97c0,.33.27.6.6.6Z"
                style="fill:none; stroke-width:0px;" />
            <path d="M21.27,17.43c0,.71-.21,1.37-.55,1.94.34-.57.55-1.23.55-1.94Z" style="fill:none; stroke-width:0px;" />
            <path d="M6.31,2.72h0c-2,.12-3.58,1.79-3.58,3.81v1h0v-1c0-2.03,1.58-3.69,3.58-3.81Z"
                style="fill:none; stroke-width:0px;" />
            <path d="M8.71,4.8v-2.08h0v2.08c0,.66-.54,1.2-1.2,1.2,0,0,0,0,0,0,.66,0,1.2-.54,1.2-1.2Z"
                style="fill:none; stroke-width:0px;" />
            <path d="M17.69,4.8v-2.08s0,0,0,0v2.08c0,.66-.54,1.2-1.2,1.2,0,0,0,0,0,0,.66,0,1.2-.54,1.2-1.2Z"
                style="fill:none; stroke-width:0px;" />
            <path
                d="M18.2,0H5.8C2.6,0,0,2.6,0,5.8v12.4c0,3.2,2.6,5.8,5.8,5.8h12.4c3.2,0,5.8-2.6,5.8-5.8V5.8c0-3.2-2.6-5.8-5.8-5.8ZM15.89,1.82c0-.33.27-.6.6-.6,0,0,0,0,0,0s0,0,0,0c.33,0,.6.27.6.6v2.97c0,.33-.27.6-.6.6,0,0,0,0,0,0s0,0,0,0c-.33,0-.6-.27-.6-.6V1.82ZM6.91,1.82c0-.33.27-.6.6-.6,0,0,0,0,0,0s0,0,0,0c.33,0,.6.27.6.6v2.97c0,.33-.27.6-.6.6,0,0,0,0,0,0s0,0,0,0c-.33,0-.6-.27-.6-.6V1.82ZM21.27,17.43c0,.71-.21,1.37-.55,1.94-.04.06-.06.13-.1.19-.07.11-.17.2-.25.3-.07.09-.14.18-.22.26-.06.06-.13.11-.2.16-.12.1-.24.21-.37.3,0,0-.02.01-.03.02-.6.4-1.33.64-2.1.64H6.55c-2.11,0-3.82-1.71-3.82-3.82v-8.7h18.54v8.7ZM21.27,7.53H2.73v-1c0-2.03,1.59-3.69,3.58-3.81h0s0,0,0,0v2.08c0,.66.54,1.2,1.2,1.2.66,0,1.2-.54,1.2-1.2v-2.08h6.59v2.08c0,.66.54,1.2,1.2,1.2.66,0,1.2-.54,1.2-1.2v-2.08s0,0,0,0h0s0,0,0,0c2,.12,3.58,1.79,3.58,3.81v1Z"
                style="fill:#f2f2f1; stroke-width:0px;" />
            <path
                d="M17.69,2.72h0v2.08c0,.66-.54,1.2-1.2,1.2,0,0,0,0,0,0-.66,0-1.2-.54-1.2-1.2v-2.08h-6.58v2.08c0,.66-.54,1.2-1.2,1.2,0,0,0,0,0,0-.66,0-1.2-.54-1.2-1.2v-2.08s0,0,0,0c-2,.12-3.58,1.79-3.58,3.81v1h18.54v-1c0-2.03-1.59-3.69-3.58-3.81Z"
                style="fill:currentColor; stroke-width:0px;" />
            <circle cx="12" cy="14.99" r="5" style="fill:#fff; stroke-width:0px;" />
            <path
                d="M2.73,17.43c0,2.11,1.72,3.82,3.82,3.82h10.9c.78,0,1.5-.24,2.1-.64,0,0,.02-.01.03-.02.13-.09.25-.2.37-.3.06-.06.14-.1.2-.16.08-.08.14-.18.22-.26.08-.1.18-.19.25-.3.04-.06.07-.13.1-.19.34-.57.55-1.23.55-1.94v-8.7H2.73v8.7ZM12,10.25c2.61,0,4.73,2.13,4.73,4.73s-2.13,4.73-4.73,4.73-4.73-2.13-4.73-4.73,2.13-4.73,4.73-4.73Z"
                style="fill:currentColor; stroke-width:0px;" />
            <path
                d="M6.91,1.82v2.97c0,.33.27.6.6.6,0,0,0,0,0,0,.33,0,.6-.27.6-.6V1.82c0-.33-.27-.6-.6-.6,0,0,0,0,0,0-.33,0-.6.27-.6.6Z"
                style="fill:currentColor; stroke-width:0px;" />
            <path
                d="M15.89,1.82v2.97c0,.33.27.6.6.6,0,0,0,0,0,0,.33,0,.6-.27.6-.6V1.82c0-.33-.27-.6-.6-.6,0,0,0,0,0,0-.33,0-.6.27-.6.6Z"
                style="fill:currentColor; stroke-width:0px;" />
            <path
                d="M12.05,16.82h0c.16,0,.3-.13.32-.29l.33-3.75c.02-.4-.3-.74-.7-.74s-.72.34-.7.74l.43,3.75c.02.16.15.28.32.28Z"
                style="fill:currentColor; stroke-width:0px;" />
            <circle cx="12.04" cy="17.74" r=".58" style="fill:currentColor; stroke-width:0px;" />
        </svg>        
        <svg id="visit-missed" xmlns="http://www.w3.org/2000/svg" viewBox="0 0 24 24" aria-hidden="true">
            <rect width="24" height="24" rx="5.8" ry="5.8" style="fill:currentColor; stroke-width:0px;" />
            <g id="b">
                <circle cx="12.09" cy="12" r="10.38" style="fill:#fff; stroke-width:0px;" />
                <path
                    d="M17.67,7.89l-1.47-1.47c-.27-.27-.71-.27-.98,0l-2.64,2.64c-.27.27-.71.27-.98,0l-2.64-2.64c-.27-.27-.71-.27-.98,0l-1.47,1.47c-.27.27-.27.71,0,.98l2.64,2.64c.27.27.27.71,0,.98l-2.64,2.64c-.27.27-.27.71,0,.98l1.47,1.47c.27.27.71.27.98,0l2.64-2.64c.27-.27.71-.27.98,0l2.64,2.64c.27.27.71.27.98,0l1.47-1.47c.27-.27.27-.71,0-.98l-2.64-2.64c-.27-.27-.27-.71,0-.98l2.64-2.64c.27-.27.27-.71,0-.98Z"
                    style="fill:currentColor; stroke-width:0px;" />
            </g>
        </svg>        
        <svg id="visit-clinic" xmlns="http://www.w3.org/2000/svg" viewBox="0 0 24 24" aria-hidden="true">
            <rect width="23.86" height="23.86" rx="5.77" ry="5.77" style="fill:currentColor; stroke-width:0px;" />
            <path
                d="M20.86,6.98L13.39,1.46c-.87-.65-2.05-.65-2.92,0L2.99,6.98c-.62.46-.99,1.2-.99,1.98v10.2c0,1.06.86,1.91,1.91,1.91h16.02c1.06,0,1.92-.86,1.92-1.91v-10.2c0-.78-.37-1.51-1-1.98h0Z"
                style="fill:#fff; stroke-width:0px;" />
            <path
                d="M5.91,16.95c1.48,1.96,3.73,3.08,6.18,3.08s4.7-1.12,6.18-3.08c.51-.67.9-1.41,1.17-2.21.27-.79.4-1.62.4-2.46,0-4.27-3.48-7.75-7.75-7.75s-7.75,3.48-7.75,7.75c0,.84.13,1.67.4,2.46.27.79.66,1.54,1.17,2.21ZM8.76,10.97h2.03v-2.03h2.6v2.03h2.03v2.6h-2.03v2.03h-2.6v-2.03h-2.03s0-2.6,0-2.6Z"
                style="fill:currentColor; stroke-width:0px;" />
        </svg>      
        <svg id="visit-review" xmlns="http://www.w3.org/2000/svg" viewBox="0 0 24 24" aria-hidden="true">
            <path
                d="M5.8,0h12.4c3.2,0,5.8,2.6,5.8,5.8v12.4c0,3.2-2.6,5.8-5.8,5.8H5.8c-3.2,0-5.8-2.6-5.8-5.8V5.8C0,2.6,2.6,0,5.8,0Z"
                style="fill:currentColor; stroke-width:0px;" />
            <path
                d="M.86,12.08c12.41,12.85,22.2,0,22.2,0C12.25-.92.86,12.08.86,12.08ZM12.07,16.82c-2.72,0-4.92-2.13-4.92-4.76s2.2-4.76,4.92-4.76,4.92,2.13,4.92,4.76-2.2,4.76-4.92,4.76Z"
                style="fill:#fff; stroke-width:0px;" />
            <ellipse cx="12.11" cy="12.1" rx="2.75" ry="2.68" style="fill:#fff; stroke-width:0px;" />
        </svg>          
        <svg id="visit-finished" xmlns="http://www.w3.org/2000/svg" viewBox="0 0 24 24" aria-hidden="true">
            <path
                d="M18.2,0H5.8C2.6,0,0,2.6,0,5.8v12.4c0,3.2,2.6,5.8,5.8,5.8h12.4c3.2,0,5.8-2.6,5.8-5.8V5.8c0-3.2-2.6-5.8-5.8-5.8ZM11.93,22.75c-5.85,0-10.62-4.76-10.62-10.62S6.07,1.51,11.93,1.51s10.62,4.76,10.62,10.62-4.76,10.62-10.62,10.62Z"
                style="fill:currentColor; stroke-width:0px;" />
            <path
                d="M11.93,3.2C7,3.2,3,7.21,3,12.13s4.01,8.93,8.93,8.93,8.93-4.01,8.93-8.93S16.85,3.2,11.93,3.2ZM17.29,8.34l-6.26,8.97c-.23.33-.6.52-.99.52s-.77-.19-.99-.52l-2.48-3.55c-.38-.55-.25-1.3.3-1.69.55-.38,1.3-.25,1.69.3l1.49,2.13,5.27-7.55c.38-.55,1.14-.68,1.69-.3.55.38.68,1.14.3,1.69Z"
                style="fill:currentColor; stroke-width:0px;" />
            <path
                d="M11.93,1.51C6.07,1.51,1.31,6.28,1.31,12.13s4.76,10.62,10.62,10.62,10.62-4.76,10.62-10.62S17.78,1.51,11.93,1.51ZM11.93,21.06c-4.93,0-8.93-4.01-8.93-8.93S7,3.2,11.93,3.2s8.93,4.01,8.93,8.93-4.01,8.93-8.93,8.93Z"
                style="fill:#fff; stroke-width:0px;" />
            <path
                d="M16.99,6.65c-.55-.38-1.3-.25-1.69.3l-5.27,7.55-1.49-2.13c-.38-.55-1.14-.68-1.69-.3-.55.38-.68,1.14-.3,1.69l2.48,3.55c.23.33.6.52.99.52s.77-.19.99-.52l6.26-8.97c.38-.55.25-1.3-.3-1.69Z"
                style="fill:#fff; stroke-width:0px;" />
        </svg>        
        <svg id="visit-validated" xmlns="http://www.w3.org/2000/svg" viewBox="0 0 24 24" aria-hidden="true">
            <path
                d="M5.8,0h12.4c3.2,0,5.8,2.6,5.8,5.8v12.4c0,3.2-2.6,5.8-5.8,5.8H5.8c-3.2,0-5.8-2.6-5.8-5.8V5.8C0,2.6,2.6,0,5.8,0Z"
                style="fill:currentColor; stroke-width:0px;" />
            <path d="M12.01,22.67C5.02,18.35,1.64,12.04,1.88,3.74,8.24.64,15.67.64,22.02,3.74c.39,8.16-2.95,14.47-10.01,18.93"
                style="fill:#fff; fill-rule:evenodd; stroke-width:0px;" />
            <polygon points="8.58 11.31 9.49 10.31 10.74 11.6 14.45 7.96 15.34 8.85 10.77 13.45 8.58 11.31"
                style="fill:currentColor; fill-rule:evenodd; stroke-width:0px;" />
            <path
                d="M15.07,7.61c-.79-.79-1.89-1.29-3.1-1.29s-2.31.49-3.1,1.29-1.29,1.89-1.29,3.1.49,2.31,1.29,3.1,1.89,1.29,3.1,1.29,2.31-.49,3.1-1.29,1.29-1.89,1.29-3.1-.49-2.31-1.29-3.1M11.96,5.31c1.49,0,2.84.6,3.81,1.58.98.98,1.58,2.32,1.58,3.81s-.6,2.84-1.58,3.81c-.98.98-2.32,1.58-3.81,1.58s-2.84-.6-3.81-1.58c-.98-.98-1.58-2.32-1.58-3.81s.6-2.84,1.58-3.81c.98-.98,2.32-1.58,3.81-1.58Z"
                style="fill:currentColor; stroke-width:0px;" />
        </svg>     
        <svg id="visit-endorsed" xmlns="http://www.w3.org/2000/svg" viewBox="0 0 24 24" aria-hidden="true">
            <rect width="24" height="24" rx="5.8" ry="5.8" style="fill:currentColor; stroke-width:0px;" />
            <path
                d="M16.81,16.51v6.07c0,.18-.08.35-.23.45-.1.07-.22.11-.34.11-.06,0-.11,0-.16-.02-.71-.21-1.42-.44-2.11-.68-.61-.21-1.23-.43-1.84-.66-.66.23-1.32.45-1.98.66-.73.24-1.48.46-2.22.68-.17.05-.36.02-.5-.09s-.23-.27-.23-.45v-6.07c.36.25.73.47,1.13.66,1.11.54,2.36.85,3.68.85s2.57-.3,3.68-.85c.4-.19.77-.42,1.13-.66h0ZM12,5.92c-2.03,0-3.67,1.65-3.67,3.67s1.65,3.67,3.67,3.67,3.67-1.65,3.67-3.67-1.65-3.67-3.67-3.67ZM19.07,9.6c0,3.9-3.17,7.07-7.07,7.07s-7.07-3.17-7.07-7.07,3.17-7.07,7.07-7.07,7.07,3.17,7.07,7.07ZM16.8,9.6c0-2.65-2.16-4.8-4.8-4.8s-4.8,2.16-4.8,4.8,2.16,4.8,4.8,4.8,4.8-2.16,4.8-4.8Z"
                style="fill:#fff; stroke-width:0px;" />
        </svg>           
        <svg id="visit-monitor" xmlns="http://www.w3.org/2000/svg" viewBox="0 0 24 24" aria-hidden="true">
            <rect width="24" height="24" rx="5.8" ry="5.8" style="fill:#253425; stroke-width:0px;" />
            <path
                d="M9.01,4.23c0-.58.47-1.05,1.05-1.05h3.87c.58,0,1.05.47,1.05,1.05v1.15h1.58v-1.15c0-1.45-1.18-2.63-2.63-2.63h-3.87c-1.45,0-2.63,1.18-2.63,2.63v1.15h1.58v-1.15Z"
                style="fill:#fff; stroke-width:0px;" />
            <path
                d="M12,9.92c-2.07,0-3.75,1.68-3.75,3.75s1.68,3.75,3.75,3.75,3.75-1.68,3.75-3.75-1.68-3.75-3.75-3.75ZM14.46,14.49h-1.64v1.64h-1.64v-1.64h-1.64v-1.64h1.64v-1.64h1.64v1.64h1.64v1.64Z"
                style="fill:#fff; stroke-width:0px;" />
            <path
                d="M19.37,6.36H4.63c-1.41,0-2.55,1.14-2.55,2.55v9.51c0,1.41,1.14,2.55,2.55,2.55h14.74c1.41,0,2.55-1.14,2.55-2.55v-9.51c0-1.41-1.14-2.55-2.55-2.55ZM12,19.05c-2.97,0-5.39-2.42-5.39-5.39s2.42-5.39,5.39-5.39,5.39,2.42,5.39,5.39-2.42,5.39-5.39,5.39Z"
                style="fill:#fff; stroke-width:0px;" />
        </svg>        
        <svg id="studies" xmlns="http://www.w3.org/2000/svg" viewBox="0 0 24 24" aria-hidden="true">
            <path
                d="M13.47,4.31v5.71l-4.7,4.7s.05-.08.05-.13v-.56c0-.12-.1-.21-.21-.21h-2.63c-.12,0-.21.1-.21.21v.56c0,.12.1.21.21.21h2.63c.05,0,.1-.02.13-.05l-.37.37c-.44.44-.75.97-.92,1.53H2.33c-.66,0-1.21-.54-1.21-1.21V4.31c0-.29.23-.52.52-.52h11.31c.29,0,.52.23.52.52h0ZM7.29,6.34c.8,0,1.52.32,2.05.85.52.52.85,1.25.85,2.05s-.32,1.52-.85,2.05c-.52.52-1.25.85-2.05.85s-1.52-.32-2.05-.85c-.52-.52-.85-1.25-.85-2.05s.32-1.52.85-2.05c.52-.52,1.25-.85,2.05-.85h0ZM6.95,7.52h.68c.05,0,.09.04.09.09v1.19h1.19c.05,0,.09.04.09.09v.68c0,.05-.04.09-.09.09h-1.19v1.19c0,.05-.04.09-.09.09h-.68c-.05,0-.09-.04-.09-.09v-1.19h-1.19c-.05,0-.09-.04-.09-.09v-.68c0-.05.04-.09.09-.09h1.19v-1.19c0-.05.04-.09.09-.09h0Z"
                style="fill:currentColor; fill-rule:evenodd; stroke-width:0px;" />
            <path
                d="M.54,0h13.51c.3,0,.54.24.54.54v2.22c0,.3-.24.54-.54.54H.54c-.3,0-.54-.24-.54-.54V.54C0,.24.24,0,.54,0h0ZM1.6.73c.19,0,.35.15.35.33v1.17c0,.18-.16.33-.35.33s-.35-.15-.35-.33v-1.17c0-.18.16-.33.35-.33h0ZM12.98.73c.19,0,.35.15.35.33v1.17c0,.18-.16.33-.35.33s-.35-.15-.35-.33v-1.17c0-.18.16-.33.35-.33h0ZM10.71.73c.19,0,.35.15.35.33v1.17c0,.18-.16.33-.35.33s-.35-.15-.35-.33v-1.17c0-.18.16-.33.35-.33h0ZM8.43.73c.19,0,.35.15.35.33v1.17c0,.18-.16.33-.35.33s-.35-.15-.35-.33v-1.17c0-.18.16-.33.35-.33h0ZM6.16.73c.19,0,.35.15.35.33v1.17c0,.18-.16.33-.35.33s-.35-.15-.35-.33v-1.17c0-.18.16-.33.35-.33h0ZM3.88.73c.19,0,.35.15.35.33v1.17c0,.18-.16.33-.35.33s-.35-.15-.35-.33v-1.17c0-.18.16-.33.35-.33h0Z"
                style="fill:currentColor; fill-rule:evenodd; stroke-width:0px;" />
            <path
                d="M14.66,10.02c1.13-1.13,3-1.1,4.16.06,1.16,1.16,1.19,3.04.06,4.16l-2.51,2.51c-.08.08-.22.08-.31,0l-3.92-3.92c-.08-.08-.08-.22,0-.31l2.51-2.51h0Z"
                style="fill:#currentColor; fill-rule:evenodd; stroke-width:0px;" />
            <path
                d="M11.78,13.21l3.92,3.92c.08.08.08.22,0,.31l-2.51,2.51c-1.13,1.13-3,1.1-4.17-.06-1.16-1.16-1.19-3.04-.06-4.16l2.51-2.51c.08-.08.22-.08.31,0h0Z"
                style="fill:currentColor; fill-rule:evenodd; stroke-width:0px;" />
        </svg>        
    </defs>
</svg>