<?xml version="1.0" encoding="UTF-8"?>
<svg id="a" xmlns="http://www.w3.org/2000/svg" version="1.1" viewBox="0 0 1080 1080">
  <defs>
    <style>
      .cls-1 {
        fill: #ff8166;
      }

      .cls-1, .cls-2 {
        stroke-width: 0px;
      }

      .cls-2 {
        fill: #351c19;
      }
    </style>
  </defs>
  <path class="cls-1" d="M442.2,560h0l33.7-19.3-17.4-30.3c-6.2-10.9-16.1-18.4-27.3-21.9-2.6-.8-5.3-1.4-8.1-1.8v-38.8h-35c-12.5,0-24,4.7-32.6,12.6-2,1.9-3.9,4-5.6,6.2l-1.2-.7-1.2-.7h0l-4.6-2.7-26.5-15.4-17.6,30.3c-6.1,10.5-8,22.7-5.3,34.6l12.6-7.2c-.7-7.1.9-14.2,4.5-20.5l10.7-18.5,14.9,8.6,7.1,4.1,1.9,1.1h0s2.3,1.4,2.3,1.4l2.2,1.3,4,2.4,21.1,12.3,5.9,3.4-9.2,15.9-1.2,2-.3.5c-.9,1.5-1.9,3-3,4.3-.7.8-1.4,1.7-2.1,2.4-1.2,1.3-2.6,2.5-4,3.5,0,0,0,0,0,0h0c-1.4,1.1-2.9,2-4.5,2.9-1,.5-2,1-2.9,1.4-1.8.8-3.7,1.3-5.6,1.8-.8.2-1.5.3-2.3.4-7.5,1.2-15.5-.1-22.5-4.2-.5-.3-1-.6-1.5-.9-1.1-.8-2.2-1.5-3.3-2.4-1.2-1-2.3-2-3.4-3.2l19.8-11.4,5.9-3.4,9.2,16c.2,0,.5-.2.7-.3,4-1.7,7.6-4.3,10.3-7.8.2-.2.3-.4.4-.6-4.8-5.9-7.6-13.4-7.6-21.6,0-.6,0-1.2,0-1.8l-12.8-7.4c-.5,2.6-.8,5.3-.9,8.1l-8.1,4.6-36,20.7-7.1,4.1-26.5,15.2,17.4,30.3c6.1,10.6,15.7,18.3,27.3,21.9v-14.5c-6.5-3-11.9-7.8-15.5-14.1l-10.7-18.5,14.8-8.5,7.1-4.1c1.3,1.6,2.7,3.2,4.2,4.6.5.5,1,1,1.6,1.5,2,1.8,4.2,3.4,6.5,4.8v9.3s0,34.7,0,34.7h0v15.1s0,30.6,0,30.6h35c1.3,0,2.5,0,3.8,0,10.8-.8,20.8-5.2,28.8-12.5l-12.5-7.3c-5.8,4.1-12.7,6.4-20,6.3h-21.4s0-17.2,0-17.2v-3.5h0v-4.7c2.1-.3,4.1-.8,6.1-1.4.7-.2,1.4-.4,2.1-.7,2.5-.9,5-2,7.4-3.3l8.1,4.7,16.8,9.7,7.2,4.2,11.9,6.9h0l33.5,19.5,17.6-30.3c6.3-10.8,7.9-23.2,5.3-34.5-.6-2.7-1.5-5.4-2.5-8h0ZM361.8,473.5c1.9-2.2,4-4.1,6.3-5.8,5-3.5,10.9-5.8,17.3-6.3.9,0,1.8-.1,2.7-.1h21.4s0,25.4,0,25.4h0v7.5s0,6.4,0,6.4v8.4s0,14.4,0,14.4v6.8h-18.5c0,.2,0,.5-.1.8-.5,4.3,0,8.7,1.6,12.8,0,.2.2.4.3.7,7.5-1.2,15.5.1,22.5,4.2.5.3,1,.6,1.5.9l12.8-7.3c-2-1.8-4.2-3.4-6.5-4.8v-9.3s0-19.4,0-19.4v-7.4h.1v-.9c2.8.5,5.5,1.4,8,2.5,6.3,2.9,11.8,7.7,15.5,14.1l10.7,18.6-33,19-1,.6-7.3,4.2-12.5,7.2-5.9,3.4-9.2-16-1.2-2-.3-.5c-.9-1.5-1.6-3.1-2.3-4.7-.4-1-.8-2-1-3.1-.5-1.7-.8-3.5-1-5.2h0s0,0,0,0c-.2-1.8-.3-3.5-.2-5.3,0-1.1.1-2.2.3-3.2.2-1.5.5-3,.9-4.5.1-.4.2-.8.4-1.2.2-.8.5-1.5.8-2.2,2.8-7.3,8-13.4,15-17.4.5-.3,1-.6,1.5-.8v-14.8c-2.5.9-5,2-7.4,3.3l-8.1-4.7-24-13.9h0ZM375.7,590.3l-12.4-7.2-5.9-3.4,9.2-16c-.2-.2-.4-.3-.6-.5-3.5-2.7-7.6-4.4-11.9-5-.2,0-.5,0-.7,0-2.8,7.3-8,13.4-14.9,17.4-.5.3-1,.6-1.5.8-1.2.6-2.5,1.2-3.7,1.6-1.5.5-2.9,1-4.4,1.3h0v-22.8s0-6.8,0-6.8h18.5s2.3,0,2.3,0h.6c1.8,0,3.5.1,5.2.4,1.1.2,2.1.4,3.2.6,1.7.4,3.4,1,5,1.7,0,0,0,0,0,0,0,0,0,0,0,0,1.6.7,3.2,1.5,4.7,2.5.9.6,1.8,1.2,2.6,1.8,1.2.9,2.4,1.9,3.5,3,.3.3.6.6.9.9.5.6,1,1.2,1.5,1.8,4.9,6.1,7.6,13.7,7.6,21.6,0,.6,0,1.2,0,1.8,0,1.4-.2,2.7-.5,4-.3,1.5-.6,3-1.1,4.5l-2.7-1.6h-.1c0,0-4.5-2.7-4.5-2.7h0ZM427.7,595.7l-10.7,18.5-21.9-12.7c.8-2,1.4-3.9,1.9-6,.2-.7.3-1.4.5-2.1.5-2.6.8-5.3.9-8.1l8.1-4.6,16.8-9.7,4.9-2.8h0l.8-.5,1.5-.8c1,2.7,1.6,5.5,1.9,8.3.7,6.9-.7,14-4.5,20.5h0Z"/>
  <path class="cls-2" d="M527.5,479.2c16.8,0,24.5,12,24.7,24.2.3,12.4-7.5,25-24.7,25h-18.6v-49.2h18.6ZM516.6,520.8h10.8c12,0,17.1-8.9,16.9-17.5-.2-8.3-5.3-16.6-16.9-16.6h-10.8v34.1h0Z"/>
  <path class="cls-2" d="M597.3,518.1h-26.7l-4.6,10.3h-8.4l22.1-49.2h8.6l22.1,49.2h-8.4l-4.7-10.3h0ZM584,487.5l-10.4,23.4h20.8l-10.4-23.4h0Z"/>
  <path class="cls-2" d="M640.5,528.6h-8.2l-20.5-49.5h8.9l15.7,40,15.8-40h8.8l-20.4,49.4h0Z"/>
  <path class="cls-2" d="M707.8,528.4h-36.4v-49.2h36.2v7.7h-28.3v13.3h27.2v7.3h-27.2v13.2h28.5v7.7h0Z"/>
  <path class="cls-2" d="M750.8,490.1c-2.3-3.4-7-5.4-12.2-5.5-6.6,0-11.4,2.7-11.4,7.5s5.5,6.1,12,7c10.1,1.4,19.8,4.2,19.8,15.3,0,11-10.1,15.2-20.4,15.2s-16.7-2.9-21.2-11.2l5.9-3.9c3.5,6,9.6,8.1,15.3,8.1s12.5-2,12.5-8.2-5.7-7.2-12.6-8.1c-9.8-1.3-19.1-3.8-19.1-14.4,0-10.2,10.1-14.1,19-14.1s14.2,1.7,18.4,8.3l-6,4h0Z"/>
  <path class="cls-2" d="M804.6,518.1h-26.7l-4.6,10.3h-8.4l22.1-49.2h8.6l22.1,49.2h-8.4l-4.7-10.3h0ZM791.3,487.5l-10.4,23.4h20.8l-10.4-23.4h0Z"/>
  <path class="cls-2" d="M542.7,595v-20.5h-26v20.5h-7.9v-49.2h7.9v21.5h26v-21.5h7.8v49.2h-7.8Z"/>
  <path class="cls-2" d="M606.3,595h-36.4v-49.2h36.2v7.7h-28.3v13.3h27.2v7.3h-27.2v13.2h28.5v7.7h0Z"/>
  <path class="cls-2" d="M657.7,584.7h-26.7l-4.6,10.3h-8.4l22.1-49.2h8.6l22.1,49.2h-8.4l-4.7-10.3h0ZM644.3,554.1l-10.4,23.4h20.8l-10.4-23.4h0Z"/>
  <path class="cls-2" d="M692.5,545.8v41.9h26v7.3h-33.8v-49.2h7.9Z"/>
  <path class="cls-2" d="M737.5,552.9h-16.2v-7.1h40.2v7.1h-16.1v42.2h-8v-42.2h0Z"/>
  <path class="cls-2" d="M809.8,595v-20.5h-26v20.5h-7.9v-49.2h7.9v21.5h26v-21.5h7.8v49.2h-7.8Z"/>
</svg>