<?xml version="1.0" encoding="UTF-8"?><svg id="a" xmlns="http://www.w3.org/2000/svg" viewBox="0 0 213.55 185.64"><path d="M179.89,112.87h0s33.66-19.34,33.66-19.34l-17.44-30.34c-6.25-10.88-16.14-18.38-27.26-21.86-2.64-.83-5.34-1.43-8.08-1.79V.7l-35-.07c-12.54-.02-23.99,4.79-32.57,12.68-2.05,1.89-3.94,3.95-5.64,6.16l-1.22-.71-1.24-.72h0l-4.59-2.66L53.99,0l-17.56,30.27c-6.11,10.54-7.98,22.74-5.32,34.56l12.59-7.24c-.69-7.1.85-14.21,4.5-20.5l10.73-18.51,14.87,8.63,7.09,4.11,1.87,1.09h0s.05.03.05.03l2.31,1.34,2.22,1.29,4.05,2.35,21.15,12.27,5.9,3.42-9.25,15.94-1.17,2.02-.31.54c-.89,1.53-1.88,2.97-2.96,4.31-.69.85-1.4,1.66-2.15,2.42-1.25,1.29-2.59,2.46-4.01,3.53-.02,0-.03-.01-.05-.01,0,.01,0,.03,0,.04-1.42,1.06-2.92,2.01-4.47,2.82-.96.51-1.95.97-2.94,1.39-1.81.75-3.68,1.35-5.59,1.78-.76.17-1.54.32-2.31.44-7.52,1.18-15.46-.11-22.53-4.22-.51-.3-1.01-.6-1.5-.92-1.15-.75-2.24-1.55-3.28-2.41-1.19-.99-2.31-2.05-3.35-3.19l19.77-11.36,5.88-3.39,9.17,15.97c.25-.09.5-.19.74-.3,4.01-1.68,7.56-4.35,10.31-7.77.16-.19.3-.38.44-.56-4.78-5.92-7.63-13.44-7.62-21.62,0-.59.01-1.17.05-1.76l-12.75-7.4c-.51,2.62-.82,5.31-.88,8.06l-8.07,4.63-35.99,20.69-7.13,4.1L0,92.12l17.44,30.34c6.07,10.56,15.7,18.27,27.26,21.88l.03-14.52c-6.49-2.95-11.88-7.84-15.5-14.14l-10.66-18.55,14.84-8.53,7.15-4.11c1.31,1.62,2.73,3.16,4.24,4.6.51.5,1.05.99,1.6,1.46,2.03,1.76,4.21,3.36,6.55,4.78l-.02,9.31-.07,34.65h0v6.86s-.03,8.23-.03,8.23l-.06,30.56,35,.08c1.26,0,2.51-.04,3.75-.14,10.78-.81,20.84-5.17,28.83-12.54l-12.55-7.29c-5.8,4.14-12.73,6.37-20,6.35l-21.4-.04.04-17.12v-3.55h0v-4.7c2.07-.32,4.11-.78,6.11-1.38.69-.2,1.38-.42,2.07-.65,2.53-.87,5.02-1.96,7.41-3.28l8.06,4.68,16.79,9.74,7.21,4.18,11.91,6.91s0,0,0,0l33.55,19.46,17.56-30.28c6.29-10.85,7.85-23.17,5.3-34.54-.61-2.72-1.45-5.39-2.52-7.96ZM99.47,26.38c1.85-2.18,3.97-4.12,6.3-5.78,4.97-3.54,10.9-5.79,17.32-6.27.87-.07,1.77-.1,2.66-.1l21.4.04-.05,25.39s0,0,0,0v4.89s-.01,2.57-.01,2.57v6.38s-.03,8.42-.03,8.42l-.03,14.36v6.79s-18.45-.04-18.45-.04c-.05.27-.08.53-.12.8-.55,4.35,0,8.73,1.6,12.8.08.22.17.44.27.66,7.51-1.18,15.45.11,22.53,4.22.51.3,1,.6,1.49.93l12.79-7.35c-2.01-1.75-4.19-3.36-6.54-4.78l.02-9.32.04-19.39.02-7.4s.07,0,.11,0v-.92c2.78.51,5.48,1.37,8.05,2.55,6.3,2.87,11.79,7.67,15.5,14.12l10.66,18.56-32.99,18.95-1.03.59-7.3,4.2-12.46,7.15-5.88,3.38-9.18-15.97-1.17-2.03-.31-.55c-.88-1.53-1.63-3.1-2.26-4.72-.4-1.01-.75-2.04-1.04-3.08-.49-1.72-.84-3.46-1.05-5.22,0,0,.01-.01.01-.01t-.01-.01c-.21-1.76-.29-3.54-.22-5.32.04-1.08.13-2.16.28-3.25.2-1.51.5-3.01.9-4.5.11-.41.23-.82.36-1.22.23-.76.49-1.5.77-2.23,2.83-7.34,8.04-13.44,14.95-17.4.51-.29,1.02-.57,1.54-.83l.04-14.75c-2.53.86-5.01,1.95-7.42,3.27l-8.06-4.67-23.99-13.91ZM113.39,143.15l-12.41-7.19-5.89-3.42,9.25-15.95c-.2-.17-.41-.33-.61-.49-3.5-2.66-7.58-4.38-11.92-5.03-.23-.03-.45-.06-.68-.09-2.82,7.33-8.04,13.44-14.94,17.4-.51.29-1.03.57-1.55.84-1.22.62-2.46,1.17-3.74,1.64-1.45.54-2.93.98-4.43,1.31,0,0,0,0,0,0l.05-22.81v-6.79s18.45.04,18.45.04h2.33s.63,0,.63,0c1.77,0,3.51.14,5.23.4,1.07.17,2.13.38,3.17.64,1.72.43,3.39.99,5.02,1.68,0,.01,0,.03.02.05.01,0,.03,0,.05-.02,1.63.7,3.22,1.53,4.73,2.49.91.57,1.79,1.18,2.65,1.84,1.2.93,2.35,1.94,3.45,3.04.3.3.61.62.9.94.53.57,1.05,1.17,1.53,1.77,4.94,6.11,7.61,13.67,7.6,21.64,0,.59-.01,1.17-.05,1.76-.07,1.36-.22,2.72-.45,4.04-.26,1.53-.63,3.03-1.09,4.5l-2.71-1.57-.1-.06h0l-4.48-2.6ZM165.35,148.54l-10.74,18.51-21.94-12.73c.75-1.95,1.38-3.94,1.86-5.98.17-.7.32-1.4.46-2.11.52-2.64.81-5.34.87-8.07l8.07-4.63,16.82-9.67,4.91-2.82h0l.83-.47,1.48-.85c.96,2.69,1.58,5.49,1.86,8.34.66,6.89-.74,14.05-4.48,20.48Z" style="fill:#000; stroke-width:0px;"/></svg>