<?xml version="1.0" encoding="UTF-8"?>
<svg id="a" xmlns="http://www.w3.org/2000/svg" version="1.1" viewBox="0 0 213.6 185.6">
  <defs>
    <style>
      .cls-1 {
        fill: #f48067;
        stroke-width: 0px;
      }
    </style>
  </defs>
  <path class="cls-1" d="M179.9,112.9h0l33.7-19.3-17.4-30.3c-6.2-10.9-16.1-18.4-27.3-21.9-2.6-.8-5.3-1.4-8.1-1.8V.7h-35c-12.5,0-24,4.7-32.6,12.6-2.1,1.9-3.9,3.9-5.6,6.2l-1.2-.7-1.2-.7h0l-4.6-2.7L54,0l-17.6,30.3c-6.1,10.5-8,22.7-5.3,34.6l12.6-7.2c-.7-7.1.8-14.2,4.5-20.5l10.7-18.5,14.9,8.6,7.1,4.1,1.9,1.1h0s2.3,1.4,2.3,1.4l2.2,1.3,4.1,2.3,21.2,12.3,5.9,3.4-9.2,15.9-1.2,2-.3.5c-.9,1.5-1.9,3-3,4.3-.7.8-1.4,1.7-2.2,2.4-1.2,1.3-2.6,2.5-4,3.5,0,0,0,0,0,0h0c-1.4,1.1-2.9,2.1-4.5,2.9-1,.5-1.9,1-2.9,1.4-1.8.8-3.7,1.3-5.6,1.8-.8.2-1.5.3-2.3.4-7.5,1.2-15.5-.1-22.5-4.2-.5-.3-1-.6-1.5-.9-1.2-.8-2.2-1.6-3.3-2.4-1.2-1-2.3-2.1-3.3-3.2l19.8-11.4,5.9-3.4,9.2,16c.2,0,.5-.2.7-.3,4-1.7,7.6-4.3,10.3-7.8.2-.2.3-.4.4-.6-4.8-5.9-7.6-13.4-7.6-21.6,0-.6,0-1.2,0-1.8l-12.8-7.4c-.5,2.6-.8,5.3-.9,8.1l-8.1,4.6-36,20.7-7.1,4.1L0,92.1l17.4,30.3c6.1,10.6,15.7,18.3,27.3,21.9v-14.5c-6.5-2.9-11.9-7.8-15.5-14.1l-10.7-18.6,14.8-8.5,7.2-4.1c1.3,1.6,2.7,3.2,4.2,4.6.5.5,1,1,1.6,1.5,2,1.8,4.2,3.4,6.5,4.8v9.3s0,34.7,0,34.7h0v15.1s0,30.6,0,30.6h35c1.3,0,2.5,0,3.8,0,10.8-.8,20.8-5.2,28.8-12.5l-12.6-7.3c-5.8,4.1-12.7,6.4-20,6.4h-21.4s0-17.2,0-17.2v-3.6h0v-4.7c2.1-.3,4.1-.8,6.1-1.4.7-.2,1.4-.4,2.1-.6,2.5-.9,5-2,7.4-3.3l8.1,4.7,16.8,9.7,7.2,4.2,11.9,6.9h0l33.6,19.5,17.6-30.3c6.3-10.9,7.9-23.2,5.3-34.5-.6-2.7-1.4-5.4-2.5-8h0ZM99.5,26.4c1.8-2.2,4-4.1,6.3-5.8,5-3.5,10.9-5.8,17.3-6.3.9,0,1.8-.1,2.7-.1h21.4s0,25.4,0,25.4h0v7.5s0,6.4,0,6.4v8.4s0,14.4,0,14.4v6.8h-18.4c0,.2,0,.5-.1.8-.6,4.3,0,8.7,1.6,12.8,0,.2.2.4.3.7,7.5-1.2,15.4.1,22.5,4.2.5.3,1,.6,1.5.9l12.8-7.3c-2-1.8-4.2-3.4-6.5-4.8v-9.3s0-19.4,0-19.4v-7.4h.1v-.9c2.8.5,5.5,1.4,8.1,2.5,6.3,2.9,11.8,7.7,15.5,14.1l10.7,18.6-33,18.9-1,.6-7.3,4.2-12.5,7.2-5.9,3.4-9.2-16-1.2-2-.3-.6c-.9-1.5-1.6-3.1-2.3-4.7-.4-1-.8-2-1-3.1-.5-1.7-.8-3.5-1.1-5.2h0s0,0,0,0c-.2-1.8-.3-3.5-.2-5.3,0-1.1.1-2.2.3-3.2.2-1.5.5-3,.9-4.5.1-.4.2-.8.4-1.2.2-.8.5-1.5.8-2.2,2.8-7.3,8-13.4,15-17.4.5-.3,1-.6,1.5-.8v-14.8c-2.5.9-5,2-7.4,3.3l-8.1-4.7-24-13.9h0ZM113.4,143.1l-12.4-7.2-5.9-3.4,9.2-15.9c-.2-.2-.4-.3-.6-.5-3.5-2.7-7.6-4.4-11.9-5-.2,0-.4,0-.7,0-2.8,7.3-8,13.4-14.9,17.4-.5.3-1,.6-1.6.8-1.2.6-2.5,1.2-3.7,1.6-1.4.5-2.9,1-4.4,1.3h0v-22.8c0,0,0-6.8,0-6.8h18.5s2.3,0,2.3,0h.6c1.8,0,3.5.1,5.2.4,1.1.2,2.1.4,3.2.6,1.7.4,3.4,1,5,1.7,0,0,0,0,0,0,0,0,0,0,0,0,1.6.7,3.2,1.5,4.7,2.5.9.6,1.8,1.2,2.7,1.8,1.2.9,2.3,1.9,3.4,3s.6.6.9.9c.5.6,1.1,1.2,1.5,1.8,4.9,6.1,7.6,13.7,7.6,21.6,0,.6,0,1.2,0,1.8,0,1.4-.2,2.7-.4,4-.3,1.5-.6,3-1.1,4.5l-2.7-1.6h0c0,0-4.5-2.7-4.5-2.7h0ZM165.4,148.5l-10.7,18.5-21.9-12.7c.8-1.9,1.4-3.9,1.9-6,.2-.7.3-1.4.5-2.1.5-2.6.8-5.3.9-8.1l8.1-4.6,16.8-9.7,4.9-2.8h0l.8-.5,1.5-.8c1,2.7,1.6,5.5,1.9,8.3.7,6.9-.7,14.1-4.5,20.5Z"/>
</svg>