<?xml version="1.0" encoding="UTF-8"?>
<svg id="Layer_1" data-name="Layer 1" xmlns="http://www.w3.org/2000/svg" version="1.1" viewBox="0 0 32 32">
  <defs>
    <style>
      .cls-1 {
        fill: #f48067;
        stroke-width: 0px;
      }
    </style>
  </defs>
  <path class="cls-1" d="M25,17.8h0l4.7-2.7-2.4-4.2c-.9-1.5-2.2-2.6-3.8-3-.4-.1-.7-.2-1.1-.2V2.2h-4.9c-1.7,0-3.3.7-4.5,1.8-.3.3-.5.5-.8.9h-.2c0,0-.2-.2-.2-.2h0l-.6-.4-3.7-2.1-2.4,4.2c-.8,1.5-1.1,3.2-.7,4.8l1.8-1c0-1,.1-2,.6-2.9l1.5-2.6,2.1,1.2,1,.6.3.2h0s.3.2.3.2l.3.2.6.3,2.9,1.7.8.5-1.3,2.2-.2.3h0c-.1.3-.3.5-.4.7,0,.1-.2.2-.3.3-.2.2-.4.3-.6.5,0,0,0,0,0,0h0c-.2.2-.4.3-.6.4-.1,0-.3.1-.4.2-.3.1-.5.2-.8.2-.1,0-.2,0-.3,0-1,.2-2.2,0-3.1-.6,0,0-.1,0-.2-.1-.2-.1-.3-.2-.5-.3-.2-.1-.3-.3-.5-.4l2.8-1.6.8-.5,1.3,2.2s0,0,.1,0c.6-.2,1.1-.6,1.4-1.1,0,0,0,0,0,0-.7-.8-1.1-1.9-1.1-3,0,0,0-.2,0-.2l-1.8-1c0,.4-.1.7-.1,1.1l-1.1.6-5,2.9-1,.6-3.7,2.1,2.4,4.2c.8,1.5,2.2,2.5,3.8,3v-2c-.9-.4-1.6-1.1-2.2-2l-1.5-2.6,2.1-1.2,1-.6c.2.2.4.4.6.6,0,0,.1.1.2.2.3.2.6.5.9.7v1.3s0,4.8,0,4.8h0v2.1s0,4.3,0,4.3h4.9c.2,0,.3,0,.5,0,1.5-.1,2.9-.7,4-1.7l-1.7-1c-.8.6-1.8.9-2.8.9h-3s0-2.4,0-2.4v-.5h0v-.7c.3,0,.6-.1.8-.2,0,0,.2,0,.3,0,.4-.1.7-.3,1-.5l1.1.7,2.3,1.4,1,.6,1.7,1h0l4.7,2.7,2.4-4.2c.9-1.5,1.1-3.2.7-4.8,0-.4-.2-.7-.4-1.1h0ZM13.8,5.8c.3-.3.6-.6.9-.8.7-.5,1.5-.8,2.4-.9.1,0,.2,0,.4,0h3s0,3.5,0,3.5h0v1s0,.9,0,.9v1.2s0,2,0,2v.9h-2.6s0,0,0,.1c0,.6,0,1.2.2,1.8,0,0,0,0,0,0,1-.2,2.1,0,3.1.6,0,0,.1,0,.2.1l1.8-1c-.3-.2-.6-.5-.9-.7v-1.3s0-2.7,0-2.7v-1h0c.4,0,.8,0,1.1.2.9.4,1.6,1.1,2.2,2l1.5,2.6-4.6,2.6h-.1c0,0-1,.7-1,.7l-1.7,1-.8.5-1.3-2.2-.2-.3h0c-.1-.3-.2-.5-.3-.7,0-.1-.1-.3-.1-.4,0-.2-.1-.5-.1-.7h0s0,0,0,0c0-.2,0-.5,0-.7,0-.2,0-.3,0-.5,0-.2,0-.4.1-.6,0,0,0-.1,0-.2,0-.1,0-.2.1-.3.4-1,1.1-1.9,2.1-2.4,0,0,.1,0,.2-.1v-2.1c-.3.1-.7.3-1,.5l-1.1-.6-3.3-1.9h0ZM15.8,22l-1.7-1-.8-.5,1.3-2.2s0,0,0,0c-.5-.4-1.1-.6-1.7-.7,0,0,0,0,0,0-.4,1-1.1,1.9-2.1,2.4,0,0-.1,0-.2.1-.2,0-.3.2-.5.2-.2,0-.4.1-.6.2h0v-3.2s0-.9,0-.9h2.6s.3,0,.3,0h0c.2,0,.5,0,.7,0,.1,0,.3,0,.4,0,.2,0,.5.1.7.2,0,0,0,0,0,0,0,0,0,0,0,0,.2,0,.4.2.7.3.1,0,.2.2.4.3.2.1.3.3.5.4s0,0,.1.1c0,0,.1.2.2.2.7.8,1.1,1.9,1.1,3,0,0,0,.2,0,.2,0,.2,0,.4,0,.6,0,.2,0,.4-.2.6l-.4-.2h0s-.6-.4-.6-.4h0ZM23,22.8l-1.5,2.6-3.1-1.8c.1-.3.2-.5.3-.8,0,0,0-.2,0-.3,0-.4.1-.7.1-1.1l1.1-.6,2.3-1.3.7-.4h.1c0,0,.2-.2.2-.2.1.4.2.8.3,1.2,0,1-.1,2-.6,2.8Z"/>
</svg>