<?xml version="1.0" encoding="UTF-8"?>
<svg id="Layer_1" data-name="Layer 1" xmlns="http://www.w3.org/2000/svg" version="1.1" viewBox="0 0 96 32">
  <defs>
    <style>
      .cls-1 {
        fill: #ff8166;
      }

      .cls-1, .cls-2 {
        stroke-width: 0px;
      }

      .cls-2 {
        fill: #fff;
      }
    </style>
  </defs>
  <path class="cls-1" d="M34.3,19.3h0l4.7-2.7-2.4-4.2c-.9-1.5-2.3-2.6-3.8-3.1-.4-.1-.7-.2-1.1-.3V3.6h-4.9c-1.8,0-3.4.7-4.6,1.8-.3.3-.6.6-.8.9h-.2c0,0-.2-.2-.2-.2h0l-.6-.4-3.7-2.2-2.5,4.2c-.9,1.5-1.1,3.2-.7,4.8l1.8-1c0-1,.1-2,.6-2.9l1.5-2.6,2.1,1.2,1,.6.3.2h0s.3.2.3.2l.3.2.6.3,3,1.7.8.5-1.3,2.2-.2.3h0c-.1.3-.3.5-.4.7,0,.1-.2.2-.3.3-.2.2-.4.3-.6.5,0,0,0,0,0,0h0c-.2.2-.4.3-.6.4-.1,0-.3.1-.4.2-.3.1-.5.2-.8.2-.1,0-.2,0-.3,0-1.1.2-2.2,0-3.2-.6,0,0-.1,0-.2-.1-.2-.1-.3-.2-.5-.3-.2-.1-.3-.3-.5-.4l2.8-1.6.8-.5,1.3,2.2s0,0,.1,0c.6-.2,1.1-.6,1.4-1.1,0,0,0,0,0,0-.7-.8-1.1-1.9-1.1-3,0,0,0-.2,0-.2l-1.8-1c0,.4-.1.7-.1,1.1l-1.1.6-5,2.9-1,.6-3.7,2.1,2.4,4.2c.8,1.5,2.2,2.6,3.8,3.1v-2c-.9-.4-1.7-1.1-2.2-2l-1.5-2.6,2.1-1.2,1-.6c.2.2.4.4.6.6,0,0,.1.1.2.2.3.2.6.5.9.7v1.3s0,4.8,0,4.8h0v2.1s0,4.3,0,4.3h4.9c.2,0,.4,0,.5,0,1.5-.1,2.9-.7,4-1.8l-1.8-1c-.8.6-1.8.9-2.8.9h-3s0-2.4,0-2.4v-.5h0v-.7c.3,0,.6-.1.9-.2,0,0,.2,0,.3,0,.4-.1.7-.3,1-.5l1.1.7,2.3,1.4,1,.6,1.7,1h0l4.7,2.7,2.5-4.2c.9-1.5,1.1-3.2.7-4.8,0-.4-.2-.8-.4-1.1h0ZM23.1,7.2c.3-.3.6-.6.9-.8.7-.5,1.5-.8,2.4-.9.1,0,.2,0,.4,0h3s0,3.6,0,3.6h0v1s0,.9,0,.9v1.2s0,2,0,2v.9h-2.6s0,0,0,.1c0,.6,0,1.2.2,1.8,0,0,0,0,0,0,1.1-.2,2.2,0,3.2.6,0,0,.1,0,.2.1l1.8-1c-.3-.2-.6-.5-.9-.7v-1.3s0-2.7,0-2.7v-1h0c.4,0,.8,0,1.1.2.9.4,1.6,1.1,2.2,2l1.5,2.6-4.6,2.7h-.1c0,0-1,.7-1,.7l-1.7,1-.8.5-1.3-2.2-.2-.3h0c-.1-.3-.2-.5-.3-.7,0-.1-.1-.3-.1-.4,0-.2-.1-.5-.1-.7h0s0,0,0,0c0-.2,0-.5,0-.7,0-.2,0-.3,0-.5,0-.2,0-.4.1-.6,0,0,0-.1,0-.2,0-.1,0-.2.1-.3.4-1,1.1-1.9,2.1-2.4,0,0,.1,0,.2-.1v-2.1c-.3.1-.7.3-1,.5l-1.1-.7-3.4-1.9h0ZM25,23.5l-1.7-1-.8-.5,1.3-2.2s0,0,0,0c-.5-.4-1.1-.6-1.7-.7,0,0,0,0,0,0-.4,1-1.1,1.9-2.1,2.4,0,0-.1,0-.2.1-.2,0-.3.2-.5.2-.2,0-.4.1-.6.2h0v-3.2s0-.9,0-.9h2.6s.3,0,.3,0h0c.2,0,.5,0,.7,0,.1,0,.3,0,.4,0,.2,0,.5.1.7.2,0,0,0,0,0,0,0,0,0,0,0,0,.2,0,.5.2.7.3.1,0,.3.2.4.3.2.1.3.3.5.4,0,0,0,0,.1.1,0,0,.1.2.2.2.7.9,1.1,1.9,1.1,3,0,0,0,.2,0,.2,0,.2,0,.4,0,.6,0,.2,0,.4-.2.6l-.4-.2h0s-.6-.4-.6-.4h0ZM32.3,24.3l-1.5,2.6-3.1-1.8c.1-.3.2-.6.3-.8,0,0,0-.2,0-.3,0-.4.1-.7.1-1.1l1.1-.6,2.4-1.4.7-.4h.1c0,0,.2-.2.2-.2.1.4.2.8.3,1.2,0,1-.1,2-.6,2.9h0Z"/>
  <path class="cls-2" d="M46.2,8c2.4,0,3.4,1.7,3.5,3.4,0,1.7-1,3.5-3.5,3.5h-2.6v-6.9h2.6ZM44.7,13.8h1.5c1.7,0,2.4-1.2,2.4-2.4,0-1.2-.7-2.3-2.4-2.3h-1.5v4.8h0Z"/>
  <path class="cls-2" d="M56,13.4h-3.7l-.6,1.4h-1.2l3.1-6.9h1.2l3.1,6.9h-1.2l-.7-1.4h0ZM54.1,9.2l-1.5,3.3h2.9l-1.5-3.3h0Z"/>
  <path class="cls-2" d="M62,14.9h-1.2l-2.9-6.9h1.2l2.2,5.6,2.2-5.6h1.2l-2.9,6.9h0Z"/>
  <path class="cls-2" d="M71.5,14.9h-5.1v-6.9h5.1v1.1h-4v1.9h3.8v1h-3.8v1.8h4v1.1h0Z"/>
  <path class="cls-2" d="M77.5,9.5c-.3-.5-1-.8-1.7-.8-.9,0-1.6.4-1.6,1s.8.9,1.7,1c1.4.2,2.8.6,2.8,2.1,0,1.5-1.4,2.1-2.9,2.1s-2.3-.4-3-1.6l.8-.6c.5.8,1.3,1.1,2.1,1.1s1.7-.3,1.7-1.1-.8-1-1.8-1.1c-1.4-.2-2.7-.5-2.7-2,0-1.4,1.4-2,2.7-2s2,.2,2.6,1.2l-.8.6h0Z"/>
  <path class="cls-2" d="M85,13.4h-3.7l-.6,1.4h-1.2l3.1-6.9h1.2l3.1,6.9h-1.2l-.7-1.4h0ZM83.1,9.2l-1.5,3.3h2.9l-1.5-3.3h0Z"/>
  <path class="cls-2" d="M48.4,24.2v-2.9h-3.6v2.9h-1.1v-6.9h1.1v3h3.6v-3h1.1v6.9h-1.1Z"/>
  <path class="cls-2" d="M57.3,24.2h-5.1v-6.9h5.1v1.1h-4v1.9h3.8v1h-3.8v1.9h4v1.1h0Z"/>
  <path class="cls-2" d="M64.5,22.7h-3.7l-.6,1.4h-1.2l3.1-6.9h1.2l3.1,6.9h-1.2l-.7-1.4h0ZM62.6,18.5l-1.5,3.3h2.9l-1.5-3.3h0Z"/>
  <path class="cls-2" d="M69.3,17.3v5.9h3.6v1h-4.7v-6.9h1.1Z"/>
  <path class="cls-2" d="M75.6,18.3h-2.3v-1h5.6v1h-2.3v5.9h-1.1v-5.9h0Z"/>
  <path class="cls-2" d="M85.7,24.2v-2.9h-3.6v2.9h-1.1v-6.9h1.1v3h3.6v-3h1.1v6.9h-1.1Z"/>
</svg>