<?xml version="1.0" encoding="UTF-8"?><svg id="a" xmlns="http://www.w3.org/2000/svg" viewBox="0 0 292.83 339.69"><g id="b"><g id="c"><path d="M215.92,107.02h0l31.92-18.35-16.55-28.77c-7.08-12.27-19.46-20.56-33.51-22.42V.66l-33.19-.07c-11.45-.04-22.49,4.26-30.9,12.02-1.95,1.79-3.74,3.74-5.35,5.84l-1.16-.67-1.18-.67h0l-4.35-2.53L96.54,0l-16.65,28.7c-5.78,9.89-7.58,21.6-5.04,32.77l11.93-6.86c-.66-6.76.83-13.56,4.25-19.44l10.17-17.54,14.1,8.17,6.72,3.91,1.77,1.02h.06l2.26,1.31,2.1,1.21,3.79,2.23,20.05,11.63,5.59,3.24-8.79,15.11-1.11,1.9-.3.51c-.82,1.44-1.76,2.81-2.8,4.1-.65.81-1.34,1.57-2.04,2.29-1.18,1.21-2.45,2.33-3.79,3.35h-.05c-1.34,1-2.76,1.9-4.25,2.67-.95.48-1.84.95-2.79,1.32-1.72.71-3.49,1.27-5.3,1.68-.72.17-1.46.3-2.19.42-7.37,1.17-14.92-.25-21.36-4-.49-.27-.95-.57-1.43-.86-1.08-.7-2.12-1.47-3.11-2.29-1.12-.93-2.19-1.94-3.18-3.02l18.75-10.78,5.58-3.2,8.69,15.17c.24-.09.47-.18.7-.28,3.82-1.6,7.18-4.13,9.78-7.37.15-.18.28-.36.42-.54-4.69-5.8-7.24-13.04-7.22-20.5v-1.66l-12.09-7.02c-.5,2.52-.77,5.08-.83,7.64l-7.65,4.39-34.13,19.62-6.77,3.89-25.05,14.46,16.54,28.77c5.68,9.94,14.91,17.36,25.85,20.76v-13.77c-6.19-2.82-11.33-7.51-14.7-13.42l-10.08-17.59,14.08-8.09,6.78-3.9c1.24,1.54,2.58,3,4.02,4.36.49.47,1,.95,1.52,1.38,1.94,1.68,4.02,3.2,6.21,4.53v8.83l-.07,32.85h0v14.31l-.06,28.98,33.19.07c1.19,0,2.38,0,3.56-.12,10.2-.75,19.83-4.95,27.34-11.89l-11.9-6.91c-5.53,3.95-12.17,6.06-18.96,6.03h-20.28v-19.6h0v-4.49c1.96-.3,3.89-.74,5.78-1.31.66-.18,1.31-.39,1.96-.62,2.43-.83,4.78-1.87,7.03-3.11l7.64,4.44,15.91,9.23,6.85,3.96,11.28,6.55h0l31.81,18.45,16.65-28.7c5.75-9.89,7.54-21.59,5.03-32.75-.58-2.58-1.38-5.11-2.39-7.56ZM139.66,25.01c1.76-2.07,3.76-3.91,5.97-5.49,4.83-3.44,10.51-5.49,16.42-5.94.83-.07,1.68-.09,2.52-.09h20.29l-.05,24.08h0v41.2h-17.48c0,.26-.08.5-.1.76-.53,4.11-.01,8.28,1.51,12.14.08.21.16.43.26.63,7.37-1.16,14.92.26,21.37,4,.47.28.95.57,1.4.88l12.09-7.01c-1.93-1.69-4-3.21-6.19-4.53v-34.24h.09v-.88c2.64.49,5.2,1.3,7.64,2.42,6.19,2.83,11.34,7.53,14.72,13.44l10.11,17.6-31.29,18.02-.95.56-6.92,3.98-11.86,6.69-5.58,3.2-8.7-15.17-1.11-1.9-.29-.52c-.83-1.44-1.54-2.93-2.14-4.48-.38-.95-.7-1.9-.95-2.92-.45-1.62-.77-3.28-.95-4.95h0c-.2-1.67-.27-3.35-.21-5.03,0-1.02.13-2.06.27-3.08.19-1.44.48-2.86.85-4.27l.34-1.16c.22-.72.46-1.42.73-2.11,2.69-6.98,7.72-12.81,14.22-16.51.48-.27.95-.53,1.46-.79v-13.99c-2.46.83-4.84,1.87-7.11,3.11l-7.63-4.43-22.75-13.23ZM152.87,135.73l-11.77-6.78-5.58-3.24,8.77-15.17c-.19-.16-.39-.31-.58-.46-3.3-2.51-7.19-4.14-11.29-4.74l-.62-.09c-2.7,6.97-7.72,12.79-14.22,16.47-.48.27-.95.55-1.46.8-1.15.58-2.34,1.1-3.55,1.56-1.37.5-2.77.92-4.2,1.23h0v-28.06h20.32c1.66,0,3.31.13,4.95.38,1.01.15,2.02.36,3.02.61,1.62.41,3.2.95,4.74,1.6h0c1.55.67,3.05,1.46,4.48,2.36.86.54,1.71,1.13,2.52,1.74,1.14.88,2.23,1.83,3.26,2.84.29.29.58.59.85.89.5.54,1,1.11,1.45,1.68,4.7,5.8,7.24,13.05,7.21,20.52v1.66c-.07,1.27-.21,2.54-.43,3.79-.25,1.44-.59,2.87-1.03,4.27l-2.57-1.5-.09-.05h0l-4.18-2.31ZM202.13,140.84l-10.17,17.56-20.81-12.07c.72-1.85,1.31-3.75,1.77-5.69.16-.67.3-1.34.43-2,.49-2.52.77-5.08.82-7.65l7.65-4.4,15.95-9.16,4.67-2.68h0l.78-.45,1.4-.81c3.24,9.03,2.33,19.03-2.48,27.33v.02Z" style="fill:#ff8166; stroke-width:0px;"/><path d="M17.67,229.81c15.94,0,23.21,11.38,23.41,22.95.27,11.8-7.06,23.7-23.41,23.7H0v-46.65h17.67ZM7.41,269.29h10.27c11.38,0,16.2-8.4,16.01-16.6-.2-7.87-5-15.75-16.01-15.75H7.41v32.35Z" style="fill:#fff; stroke-width:0px;"/><path d="M83.85,266.7h-25.28l-4.4,9.8h-7.95l20.95-46.69h8.14l20.95,46.69h-7.94l-4.47-9.8ZM71.24,237.68l-9.87,22.21h19.74l-9.87-22.21Z" style="fill:#fff; stroke-width:0px;"/><path d="M124.8,276.7h-7.8l-19.41-46.89h8.41l14.87,37.93,14.94-37.93h8.32l-19.32,46.89Z" style="fill:#fff; stroke-width:0px;"/><path d="M188.69,276.5h-34.53v-46.69h34.29v7.23h-26.81v12.6h25.74v6.94h-25.74v12.54h27.06v7.38Z" style="fill:#fff; stroke-width:0px;"/><path d="M229.46,240.15c-2.2-3.2-6.64-5.13-11.54-5.2-6.27,0-10.8,2.6-10.8,7.06s5.2,5.8,11.38,6.64c9.61,1.33,18.74,4,18.74,14.47s-9.61,14.41-19.34,14.41c-8.93,0-15.81-2.74-20.07-10.61l5.6-3.74c3.34,5.69,9.14,7.67,14.54,7.67s11.8-1.9,11.8-7.74c0-5.06-5.4-6.8-11.94-7.67-9.27-1.27-18.07-3.6-18.07-13.61-.07-9.67,9.61-13.41,18.02-13.41,6.74,0,13.47,1.6,17.41,7.87l-5.72,3.84Z" style="fill:#fff; stroke-width:0px;"/><path d="M280.43,266.7h-25.28l-4.4,9.8h-7.94l20.94-46.69h8.14l20.94,46.69h-7.94l-4.47-9.8ZM267.83,237.68l-9.92,22.21h19.75l-9.83-22.21Z" style="fill:#fff; stroke-width:0px;"/><path d="M32.15,339.67v-19.41H7.5v19.41H0v-46.68h7.47v20.35h24.65v-20.35h7.41v46.7l-7.38-.02Z" style="fill:#fff; stroke-width:0px;"/><path d="M92.47,339.67h-34.49v-46.68h34.29v7.27h-26.84v12.64h25.78v6.94h-25.78v12.54h27.04v7.29Z" style="fill:#fff; stroke-width:0px;"/><path d="M141.11,329.87h-25.29l-4.4,9.8h-7.94l20.95-46.68h8.14l20.95,46.7h-7.94l-4.48-9.82ZM128.5,300.85l-9.87,22.22h19.75l-9.88-22.22Z" style="fill:#fff; stroke-width:0px;"/><path d="M174.14,292.99v39.77h24.65v6.93h-32.12v-46.7h7.47Z" style="fill:#fff; stroke-width:0px;"/><path d="M216.78,299.71h-15.34v-6.72h38.16v6.74h-15.28v39.96h-7.54v-39.98Z" style="fill:#fff; stroke-width:0px;"/><path d="M285.41,339.67v-19.41h-24.65v19.41h-7.47v-46.68h7.47v20.35h24.65v-20.35h7.41v46.7l-7.41-.02Z" style="fill:#fff; stroke-width:0px;"/></g></g></svg>