<?xml version="1.0" encoding="UTF-8"?><svg id="a" xmlns="http://www.w3.org/2000/svg" viewBox="0 0 199.56 199.56"><circle cx="99.78" cy="99.78" r="99.78" style="fill:#662d91; stroke-width:0px;"/><rect x="76.21" y="64.07" width="6.24" height="61.59" style="fill:#fff; stroke-width:0px;"/><path d="M96.65,64.07h-7.22v5.57h5.48c18.53,0,27.49,12.53,27.49,25.23s-8.96,25.23-27.49,25.23h-5.48v5.57h7.22c15.4,0,32.36-10.26,32.36-30.8s-16.96-30.8-32.36-30.8Z" style="fill:#fff; stroke-width:0px;"/><rect x="141.14" y="64.28" width="5.89" height="61.18" style="fill:#fff; stroke-width:0px;"/><path d="M171.38,101.85c2.07-.4,3.93-1.16,5.6-2.28,1.67-1.12,3.1-2.5,4.31-4.14,1.21-1.64,2.14-3.47,2.8-5.52.66-2.04.99-4.18.99-6.42,0-2.35-.45-4.68-1.33-6.98-.89-2.3-2.14-4.35-3.75-6.16-1.61-1.81-3.53-3.27-5.77-4.39-2.24-1.12-4.68-1.68-7.32-1.68h-12.89v5.34h12.63c1.67,0,3.26.37,4.78,1.12,1.52.75,2.84,1.75,3.96,3.02,1.12,1.26,2.01,2.74,2.67,4.44.66,1.7.99,3.46.99,5.3s-.29,3.59-.86,5.26c-.57,1.67-1.38,3.16-2.41,4.48s-2.28,2.37-3.75,3.14c-1.47.78-3.09,1.16-4.87,1.16h-13.15v5.32h3.56v.02h7.61l14.48,22.57h6.81l-15.08-23.61Z" style="fill:#fff; stroke-width:0px;"/><rect x="18.64" y="64.28" width="5.89" height="61.18" style="fill:#fff; stroke-width:0px;"/><path d="M48.89,101.85c2.07-.4,3.93-1.16,5.6-2.28,1.67-1.12,3.1-2.5,4.31-4.14,1.21-1.64,2.14-3.47,2.8-5.52.66-2.04.99-4.18.99-6.42,0-2.35-.45-4.68-1.33-6.98-.89-2.3-2.14-4.35-3.75-6.16-1.61-1.81-3.53-3.27-5.77-4.39-2.24-1.12-4.68-1.68-7.32-1.68h-12.89v5.34h12.63c1.67,0,3.26.37,4.78,1.12,1.52.75,2.84,1.75,3.96,3.02,1.12,1.26,2.01,2.74,2.67,4.44.66,1.7.99,3.46.99,5.3s-.29,3.59-.86,5.26c-.57,1.67-1.38,3.16-2.41,4.48s-2.28,2.37-3.75,3.14c-1.47.78-3.09,1.16-4.87,1.16h-13.15v5.32h3.56v.02h7.61l14.48,22.57h6.81l-15.08-23.61Z" style="fill:#fff; stroke-width:0px;"/></svg>