<?xml version="1.0" encoding="UTF-8"?><svg id="uuid-f6054972-9a68-4752-b77a-3263aae72522" xmlns="http://www.w3.org/2000/svg" viewBox="0 0 200 200"><rect width="200" height="200" style="fill:#62429a; stroke-width:0px;"/><path d="M12.89,13.47v100.77h176.95V13.47H12.89ZM34.95,87.85h-4.63v-48.18h4.63v48.18ZM60.64,87.85l-11.38-17.78h-6v-.02h-2.79v-4.18h10.34c1.41,0,2.68-.33,3.84-.92,1.16-.61,2.14-1.45,2.96-2.49s1.45-2.2,1.89-3.53c.45-1.31.67-2.7.67-4.14s-.27-2.84-.77-4.16c-.53-1.33-1.22-2.51-2.1-3.49-.9-1-1.94-1.8-3.12-2.39-1.2-.58-2.47-.88-3.78-.88h-9.94v-4.2h10.14c2.08,0,4,.45,5.77,1.33,1.75.87,3.28,2.04,4.55,3.45,1.27,1.43,2.24,3.06,2.93,4.86.72,1.81,1.06,3.65,1.06,5.49s-.27,3.45-.77,5.06c-.53,1.61-1.27,3.06-2.22,4.34-.94,1.29-2.06,2.37-3.39,3.26-1.31.88-2.78,1.47-4.41,1.8l11.88,18.59h-5.36v.02h0ZM86.47,88.01h-4.92v-48.5h4.92v48.5h0ZM97.65,88.01h-5.67v-4.39h4.3c14.59,0,21.65-9.85,21.65-19.87s-7.06-19.85-21.65-19.85h-4.3v-4.39h5.67c12.14,0,25.48,8.08,25.48,24.24,0,16.17-13.34,24.25-25.48,24.25h0ZM142.56,88.2h-4.65v-48.18h4.65v48.18ZM168.25,88.2l-11.4-17.77h-6v-.02h-2.79v-4.18h10.36c1.39,0,2.68-.31,3.82-.92,1.16-.61,2.14-1.43,2.96-2.47s1.45-2.22,1.89-3.53c.45-1.33.67-2.7.67-4.14s-.25-2.84-.77-4.18c-.51-1.33-1.22-2.49-2.1-3.49-.87-1-1.92-1.8-3.12-2.37-1.2-.59-2.45-.9-3.76-.9h-9.96v-4.2h10.16c2.06,0,4,.45,5.75,1.33,1.78.87,3.28,2.04,4.55,3.47,1.27,1.43,2.24,3.04,2.96,4.84.69,1.81,1.04,3.65,1.04,5.51,0,1.75-.27,3.45-.77,5.06-.53,1.59-1.27,3.04-2.2,4.32-.96,1.31-2.08,2.39-3.39,3.26-1.33.87-2.79,1.49-4.43,1.8l11.88,18.59h-5.34s0,0,0,0Z" style="fill:#f3f3f3; stroke-width:0px;"/><path d="M15.72,136.7v-12.54h5.28c.54,0,1.04.11,1.5.34s.85.53,1.18.9.58.79.77,1.26c.18.47.27.95.27,1.43s-.07.9-.2,1.31-.33.8-.58,1.13c-.25.33-.54.62-.88.85-.34.23-.72.39-1.15.47l3.09,4.84h-1.39l-2.97-4.63h-3.71v4.63h-1.22ZM16.94,130.98h4.12c.36,0,.7-.08,1-.24s.56-.37.77-.64c.21-.27.38-.58.5-.92.12-.34.18-.7.18-1.08s-.07-.74-.2-1.09c-.14-.35-.32-.65-.55-.91s-.5-.47-.81-.62-.64-.23-.98-.23h-4.01v5.72h0Z" style="fill:#f3f3f3; stroke-width:0px;"/><path d="M15.72,186.22v-12.54h5.28c.54,0,1.04.11,1.5.34s.85.53,1.18.9.58.79.77,1.26c.18.47.27.95.27,1.43s-.07.9-.2,1.31-.33.8-.58,1.13-.54.62-.88.85c-.34.23-.72.39-1.15.47l3.09,4.84h-1.39l-2.97-4.63h-3.71v4.63h-1.22ZM16.94,180.5h4.12c.36,0,.7-.08,1-.24s.56-.37.77-.64.38-.58.5-.92c.12-.34.18-.7.18-1.08s-.07-.74-.2-1.09c-.14-.35-.32-.65-.55-.91s-.5-.47-.81-.62-.64-.23-.98-.23h-4.01v5.72h0Z" style="fill:#f3f3f3; stroke-width:0px;"/><path d="M30.75,136.7h-1.39l5.41-12.51h1.24l5.37,12.51h-1.41l-1.38-3.29h-6.47l-1.36,3.29h0ZM32.59,132.25h5.51l-2.76-6.65-2.75,6.65h0Z" style="fill:#f3f3f3; stroke-width:0px;"/><path d="M61.05,135.57h6.7v1.13h-7.97v-12.51h7.76v1.13h-6.48v4.31h6.06v1.11h-6.06v4.82h0Z" style="fill:#f3f3f3; stroke-width:0px;"/><path d="M32.71,161.92h-1.27v-12.51h1.27v12.51Z" style="fill:#f3f3f3; stroke-width:0px;"/><path d="M44.92,151.43c-.53-.76-1.39-1.25-2.58-1.25s-2.67.74-2.67,2.35,1.33,2,2.72,2.45c1.77.58,3.71,1.15,3.71,3.66s-2.1,3.61-4.08,3.61c-1.52,0-3.04-.62-3.94-1.86l1.09-.81c.55.88,1.56,1.57,2.86,1.57s2.78-.81,2.78-2.42c0-1.75-1.47-2.19-3.06-2.69-1.66-.51-3.36-1.24-3.36-3.5,0-2.42,2.15-3.45,3.99-3.45,1.68,0,2.93.71,3.53,1.52l-1.01.81h0Z" style="fill:#f3f3f3; stroke-width:0px;"/><path d="M52.91,160.8h6.7v1.13h-7.97v-12.51h7.76v1.13h-6.48v4.31h6.06v1.11h-6.06v4.82h0Z" style="fill:#f3f3f3; stroke-width:0px;"/><path d="M65.44,161.92h-1.39l5.41-12.51h1.24l5.37,12.51h-1.41l-1.38-3.29h-6.47l-1.36,3.29h0ZM67.28,157.47h5.51l-2.76-6.65-2.75,6.65h0Z" style="fill:#f3f3f3; stroke-width:0px;"/><path d="M86.78,151.43c-.53-.76-1.39-1.25-2.58-1.25s-2.67.74-2.67,2.35,1.33,2,2.72,2.45c1.77.58,3.71,1.15,3.71,3.66s-2.1,3.61-4.08,3.61c-1.52,0-3.04-.62-3.94-1.86l1.09-.81c.55.88,1.56,1.57,2.86,1.57s2.78-.81,2.78-2.42c0-1.75-1.47-2.19-3.06-2.69-1.66-.51-3.36-1.24-3.36-3.5,0-2.42,2.15-3.45,3.99-3.45,1.68,0,2.93.71,3.53,1.52l-1.01.81h0Z" style="fill:#f3f3f3; stroke-width:0px;"/><path d="M94.16,160.8h6.7v1.13h-7.97v-12.51h7.76v1.13h-6.48v4.31h6.06v1.11h-6.06v4.82h0Z" style="fill:#f3f3f3; stroke-width:0px;"/><path d="M30.89,185.07h6.7v1.13h-7.97v-12.51h7.76v1.13h-6.48v4.31h6.06v1.11h-6.06v4.82h0Z" style="fill:#f3f3f3; stroke-width:0px;"/><path d="M48.95,175.71c-.53-.76-1.39-1.25-2.58-1.25s-2.67.74-2.67,2.35,1.33,2,2.72,2.46c1.77.58,3.71,1.15,3.71,3.66s-2.1,3.61-4.08,3.61c-1.52,0-3.04-.62-3.94-1.86l1.09-.81c.55.89,1.56,1.57,2.86,1.57s2.78-.81,2.78-2.42c0-1.75-1.47-2.19-3.06-2.69-1.66-.51-3.36-1.24-3.36-3.5,0-2.42,2.15-3.45,3.99-3.45,1.68,0,2.93.71,3.53,1.52l-1.01.81h0Z" style="fill:#f3f3f3; stroke-width:0px;"/><path d="M56.95,185.07h6.7v1.13h-7.97v-12.51h7.76v1.13h-6.48v4.31h6.06v1.11h-6.06v4.82h0Z" style="fill:#f3f3f3; stroke-width:0px;"/><path d="M68.86,186.2h-1.39l5.41-12.51h1.24l5.37,12.51h-1.41l-1.38-3.29h-6.47l-1.36,3.29h0ZM70.7,181.75h5.51l-2.76-6.65-2.75,6.65h0Z" style="fill:#f3f3f3; stroke-width:0px;"/><path d="M108.07,184.19c-.83,1.25-2.44,2.33-4.68,2.33-3.78,0-6.52-2.78-6.52-6.57s2.79-6.57,6.52-6.57c1.84,0,3.59.76,4.45,1.98l-1.06.78c-.53-.81-1.78-1.64-3.37-1.64-3.23,0-5.2,2.54-5.2,5.46s1.98,5.46,5.2,5.46c1.43,0,2.81-.56,3.67-1.86l.99.63h0Z" style="fill:#f3f3f3; stroke-width:0px;"/><path d="M113.08,173.69h1.27v5.43h6.82v-5.43h1.27v12.51h-1.27v-5.92h-6.82v5.92h-1.27v-12.51Z" style="fill:#f3f3f3; stroke-width:0px;"/><rect x="83.81" y="173.68" width="1.21" height="12.54" style="fill:#f3f3f3; stroke-width:0px;"/><path d="M90.01,181.38c.42-.08.81-.24,1.15-.47.34-.23.64-.51.88-.85.25-.33.44-.71.58-1.13s.2-.86.2-1.31c0-.48-.09-.96-.27-1.43-.18-.47-.44-.89-.77-1.26-.33-.37-.72-.67-1.18-.9-.46-.23-.96-.34-1.5-.34h-2.64v1.09h2.59c.34,0,.67.08.98.23.31.15.58.36.81.62.23.26.41.56.55.91s.2.71.2,1.09-.06.73-.18,1.08c-.12.34-.28.65-.5.92-.21.27-.47.48-.77.64-.3.16-.63.24-1,.24h-2.7v1.09h2.29s2.97,4.63,2.97,4.63h1.39l-3.09-4.84h0Z" style="fill:#f3f3f3; stroke-width:0px;"/><rect x="45.13" y="124.16" width="1.21" height="12.54" style="fill:#f3f3f3; stroke-width:0px;"/><path d="M51.32,131.86c.42-.08.81-.24,1.15-.47.34-.23.64-.51.88-.85.25-.33.44-.71.58-1.13s.2-.86.2-1.31c0-.48-.09-.96-.27-1.43-.18-.47-.44-.89-.77-1.26-.33-.37-.72-.67-1.18-.9-.46-.23-.96-.34-1.5-.34h-2.64v1.09h2.59c.34,0,.67.08.98.23s.58.36.81.62c.23.26.41.56.55.91.14.34.2.71.2,1.09s-.06.73-.18,1.08c-.12.34-.28.65-.5.92s-.47.48-.77.64-.63.24-1,.24h-2.7v1.09h2.29s2.97,4.63,2.97,4.63h1.39l-3.09-4.84h0Z" style="fill:#f3f3f3; stroke-width:0px;"/><rect x="15.72" y="149.3" width="1.28" height="12.63" style="fill:#f3f3f3; stroke-width:0px;"/><path d="M19.91,149.3h-1.48v1.14h1.12c3.8,0,5.64,2.57,5.64,5.17s-1.84,5.17-5.64,5.17h-1.12v1.14h1.48c3.16,0,6.63-2.11,6.63-6.31s-3.48-6.32-6.63-6.32h0Z" style="fill:#f3f3f3; stroke-width:0px;"/></svg>